SplineFontDB: 3.0
FontName: Jinko-Black
FullName: Jinko Black
FamilyName: Jinko
Weight: Black
Copyright: 
Version: 1.000
ItalicAngle: 0
UnderlinePosition: -50
UnderlineWidth: 50
Ascent: 1638
Descent: 410
sfntRevision: 0x00000000
LayerCount: 2
Layer: 0 0 "Back"  1
Layer: 1 0 "Fore"  0
XUID: [1021 14 500265001 12837032]
FSType: 0
OS2Version: 0
OS2_WeightWidthSlopeOnly: 0
OS2_UseTypoMetrics: 1
CreationTime: 1337095759
ModificationTime: 1337282031
PfmFamily: 33
TTFWeight: 900
TTFWidth: 5
LineGap: 0
VLineGap: 0
OS2TypoAscent: 2064
OS2TypoAOffset: 0
OS2TypoDescent: -631
OS2TypoDOffset: 0
OS2TypoLinegap: 0
OS2WinAscent: 2064
OS2WinAOffset: 0
OS2WinDescent: 631
OS2WinDOffset: 0
HheadAscent: 2064
HheadAOffset: 0
HheadDescent: -631
HheadDOffset: 0
OS2SubXSize: 1331
OS2SubYSize: 1228
OS2SubXOff: 0
OS2SubYOff: 153
OS2SupXSize: 1331
OS2SupYSize: 1228
OS2SupXOff: 0
OS2SupYOff: 716
OS2StrikeYSize: 50
OS2StrikeYPos: 622
OS2Vendor: 'newt'
Lookup: 4 0 1 "'liga' Standard Ligatures in Latin lookup 0"  {"'liga' Standard Ligatures in Latin lookup 0-1"  } ['liga' ('DFLT' <'dflt' > 'latn' <'dflt' > ) ]
Lookup: 258 0 0 "'kern' Horizontal Kerning lookup 0"  {"'kern' Horizontal Kerning lookup 0 per glyph data 0"  "'kern' Horizontal Kerning lookup 0 kerning class 1"  } ['kern' ('DFLT' <'dflt' > 'latn' <'dflt' > ) ]
MarkAttachClasses: 1
DEI: 91125
KernClass2: 29 33 "'kern' Horizontal Kerning lookup 0 kerning class 1" 
 81 A Aacute Abreve Acircumflex Adieresis Agrave Amacron Aogonek Aring Atilde uni0202
 9 B uni1E02
 111 D Dcaron Eth O Oacute Obreve Ocircumflex Odieresis Ograve Ohungarumlaut Omacron Oslash Otilde Q uni020E uni1E0A
 1 F
 1 J
 1 K
 1 L
 9 P uni1E56
 36 R Racute Rcaron Rcommaaccent uni0212
 24 T Tcaron uni021A uni1E6A
 95 U Uacute Ubreve Ucircumflex Udieresis Ugrave Uhungarumlaut Umacron Uogonek Uring Utilde uni0216
 1 V
 37 W Wacute Wcircumflex Wdieresis Wgrave
 37 Y Yacute Ycircumflex Ydieresis Ygrave
 1 a

StartChar: Eth
Encoding: 140 208 0
Width: 1220
Flags: HW
LayerCount: 2
Fore
SplineSet
607 326 m 1
 669 326 l 2
 916 326 1027 427 1027 735 c 0
 1027 1021 938 1155 757 1155 c 2
 607 1155 l 1
 607 855 l 1
 708 855 l 1
 708 653 l 1
 607 653 l 1
 607 326 l 1
43 653 m 1
 43 855 l 1
 146 855 l 1
 146 1481 l 1
 638 1481 l 2
 1180 1481 1502 1306 1502 737 c 0
 1502 164 1160 0 628 0 c 2
 146 0 l 1
 146 653 l 1
 43 653 l 1
EndSplineSet
EndChar

StartChar: eth
Encoding: 172 240 1
Width: 1290
Flags: HW
LayerCount: 2
Fore
SplineSet
643 -25 m 0
 302 -25 80 153 80 485 c 0
 80 761 298 926 542 926 c 0
 603 926 734 911 787 847 c 1
 787 942 751 1103 557 1175 c 1
 486 1035 l 1
 364 1086 l 1
 427 1209 l 1
 427 1209 306 1243 207 1245 c 1
 261 1479 l 1
 381 1469 441 1459 539 1444 c 1
 604 1552 l 1
 726 1501 l 1
 671 1406 l 1
 993 1286 1210 1006 1210 555 c 0
 1210 173 988 -25 643 -25 c 0
653 244 m 0
 755 244 787 316 787 447 c 2
 787 629 l 1
 787 629 741 681 655 681 c 0
 575 681 524 642 524 470 c 0
 524 333 526 244 653 244 c 0
EndSplineSet
EndChar

StartChar: Lslash
Encoding: 244 321 2
Width: 1257
Flags: HW
LayerCount: 2
Fore
SplineSet
119 0 m 1
 119 470 l 1
 -14 381 l 1
 -14 624 l 1
 119 716 l 1
 119 1481 l 1
 579 1481 l 1
 579 1035 l 1
 811 1197 l 1
 811 951 l 1
 579 790 l 1
 579 341 l 1
 1216 341 l 1
 1216 0 l 1
 119 0 l 1
EndSplineSet
EndChar

StartChar: lslash
Encoding: 245 322 3
Width: 650
Flags: HW
LayerCount: 2
Fore
SplineSet
534 3 m 2
 139 3 123 163 123 360 c 2
 123 544 l 1
 0 475 l 1
 0 667 l 1
 123 737 l 1
 123 1438 l 1
 511 1438 l 1
 510 966 l 1
 635 1037 l 1
 635 842 l 1
 510 774 l 1
 510 385 l 2
 510 365 481 255 617 255 c 1
 617 3 l 1
 534 3 l 2
EndSplineSet
EndChar

StartChar: Thorn
Encoding: 154 222 8
Width: 1427
Flags: HW
LayerCount: 2
Back
SplineSet
584 676 m 1
 772 677 958 690 958 889 c 0
 958 1088.52 683.256 1038 584 1038 c 1
 584 676 l 1
124 0 m 1
 124 1481 l 1
 584 1481 l 1
 584 1368 l 1
 863 1368 l 2
 1140 1368 1429 1237 1429 896 c 0
 1429 600 1212 342 837 342 c 2
 584 342 l 1
 584 0 l 1
 124 0 l 1
EndSplineSet
Fore
SplineSet
584 649 m 1
 772 650 958 647 958 846 c 0
 958 995 838 1011 584 1011 c 1
 584 649 l 1
124 0 m 1
 124 1481 l 1
 584 1481 l 1
 584 1309 l 1
 863 1309 l 2
 1140 1309 1429 1194 1429 853 c 0
 1429 557 1212 342 837 342 c 2
 584 342 l 1
 584 0 l 1
 124 0 l 1
EndSplineSet
EndChar

StartChar: thorn
Encoding: 186 254 9
Width: 1217
Flags: HW
LayerCount: 2
Fore
SplineSet
582 260 m 0
 740 260 779 345 779 526 c 0
 779 684 767 759 630 759 c 0
 552 759 540 732 513 698 c 1
 513 264 l 1
 522 263 543 260 582 260 c 0
123 -392 m 1
 123 1430 l 1
 513 1430 l 1
 513 867 l 1
 578 991 695 1061 832 1061 c 0
 1112 1061 1180 850 1180 530 c 0
 1180 228 1041 -20 759 -20 c 0
 657 -20 611 -11 513 43 c 1
 513 -392 l 1
 123 -392 l 1
EndSplineSet
EndChar

StartChar: onehalf
Encoding: 121 189 12
Width: 1677
Flags: HW
LayerCount: 2
Fore
SplineSet
147 557 m 1
 147 737 l 1
 258 737 l 1
 258 1144 l 1
 92 1125 l 1
 92 1275 l 1
 198 1282 273 1303 286 1381 c 1
 502 1381 l 1
 502 737 l 1
 607 737 l 1
 607 557 l 1
 147 557 l 1
1017 0 m 1
 1017 147 l 1
 1088 196 1365 413 1365 540 c 0
 1365 621 1306 632 1277 632 c 0
 1194 632 1112 594 1083 582 c 1
 1030 759 l 1
 1075 795 1203 836 1304 836 c 0
 1511 836 1626 732 1626 572 c 0
 1626 406 1414 216 1348 187 c 1
 1666 187 l 1
 1666 0 l 1
 1017 0 l 1
381 0 m 1
 1174 1430 l 1
 1302 1430 l 1
 508 0 l 1
 381 0 l 1
EndSplineSet
EndChar

StartChar: onequarter
Encoding: 120 188 13
Width: 1620
Flags: HW
LayerCount: 2
Fore
SplineSet
152 557 m 1
 152 737 l 1
 263 737 l 1
 263 1144 l 1
 97 1125 l 1
 97 1275 l 1
 203 1282 278 1303 291 1381 c 1
 507 1381 l 1
 507 737 l 1
 612 737 l 1
 612 557 l 1
 152 557 l 1
1049 263 m 1
 1178 263 l 1
 1178 602 l 1
 1049 263 l 1
370 0 m 1
 1163 1430 l 1
 1291 1430 l 1
 497 0 l 1
 370 0 l 1
1178 0 m 1
 1178 122 l 1
 862 122 l 1
 862 263 l 1
 1107 819 l 1
 1436 819 l 1
 1436 263 l 1
 1512 263 l 1
 1512 122 l 1
 1436 122 l 1
 1436 0 l 1
 1178 0 l 1
EndSplineSet
EndChar

StartChar: threequarters
Encoding: 122 190 14
Width: 1593
Flags: HW
LayerCount: 2
Fore
SplineSet
329 551 m 0
 204 551 132 572 65 619 c 1
 65 830 l 1
 99 830 l 1
 164 765 229 742 271 739 c 0
 318 736 423 741 423 849 c 0
 423 916 390 918 322 918 c 2
 239 918 l 1
 239 1065 l 1
 255 1065 l 2
 323 1065 396 1053 396 1132 c 0
 396 1198 306 1203 295 1203 c 0
 251 1203 189 1177 114 1106 c 1
 65 1106 l 1
 65 1315 l 1
 116 1351 235 1392 333 1392 c 0
 526 1392 628 1324 642 1201 c 1
 652 1079 597 1021 522 988 c 1
 593 967 667 923 667 824 c 0
 667 661 549 551 329 551 c 0
1021 263 m 1
 1151 263 l 1
 1151 602 l 1
 1021 263 l 1
342 0 m 1
 1135 1430 l 1
 1263 1430 l 1
 469 0 l 1
 342 0 l 1
1151 0 m 1
 1151 122 l 1
 835 122 l 1
 835 263 l 1
 1080 819 l 1
 1409 819 l 1
 1409 263 l 1
 1484 263 l 1
 1484 122 l 1
 1409 122 l 1
 1409 0 l 1
 1151 0 l 1
EndSplineSet
EndChar

StartChar: brokenbar
Encoding: 101 166 15
Width: 477
Flags: HW
LayerCount: 2
Fore
SplineSet
108 827 m 1
 108 1505 l 1
 370 1505 l 1
 370 827 l 1
 108 827 l 1
108 -142 m 1
 108 536 l 1
 370 536 l 1
 370 -142 l 1
 108 -142 l 1
EndSplineSet
EndChar

StartChar: minus
Encoding: 403 8722 16
Width: 1159
Flags: HW
LayerCount: 2
Fore
SplineSet
90 371 m 1
 90 660 l 1
 1076 660 l 1
 1076 371 l 1
 90 371 l 1
EndSplineSet
EndChar

StartChar: multiply
Encoding: 147 215 17
Width: 1206
Flags: HW
LayerCount: 2
Fore
SplineSet
275 6 m 1
 132 149 l 1
 458 477 l 1
 132 802 l 1
 280 947 l 1
 603 622 l 1
 926 947 l 1
 1074 802 l 1
 748 477 l 1
 1074 149 l 1
 931 6 l 1
 603 333 l 1
 275 6 l 1
EndSplineSet
EndChar

StartChar: exclam
Encoding: 1 33 19
Width: 720
Flags: HW
LayerCount: 2
Fore
SplineSet
258 546 m 1
 168 1481 l 1
 592 1481 l 1
 512 546 l 1
 258 546 l 1
384 -29 m 0
 262 -29 157 76 157 198 c 0
 157 321 262 424 384 424 c 0
 509 424 613 321 613 198 c 0
 613 76 509 -29 384 -29 c 0
EndSplineSet
EndChar

StartChar: quotedbl
Encoding: 2 34 20
Width: 1023
Flags: HW
LayerCount: 2
Fore
SplineSet
586 979 m 1
 539 1481 l 1
 887 1481 l 1
 841 979 l 1
 586 979 l 1
189 979 m 1
 141 1481 l 1
 491 1481 l 1
 444 979 l 1
 189 979 l 1
EndSplineSet
EndChar

StartChar: numbersign
Encoding: 3 35 21
Width: 1610
Flags: HW
LayerCount: 2
Fore
SplineSet
673 609 m 1
 890 609 l 1
 950 863 l 1
 733 863 l 1
 673 609 l 1
246 -23 m 1
 322 337 l 1
 89 337 l 1
 89 611 l 1
 382 611 l 1
 444 861 l 1
 202 861 l 1
 202 1131 l 1
 505 1131 l 1
 584 1507 l 1
 874 1507 l 1
 798 1131 l 1
 1010 1131 l 1
 1089 1507 l 1
 1380 1507 l 1
 1300 1131 l 1
 1526 1131 l 1
 1526 861 l 1
 1236 861 l 1
 1177 611 l 1
 1409 611 l 1
 1409 337 l 1
 1118 337 l 1
 1039 -23 l 1
 752 -23 l 1
 828 337 l 1
 612 337 l 1
 535 -23 l 1
 246 -23 l 1
EndSplineSet
EndChar

StartChar: dollar
Encoding: 4 36 22
Width: 1284
Flags: HW
LayerCount: 2
Fore
SplineSet
556 886 m 1
 556 1051 l 1
 505 1051 442 1017 442 964 c 0
 442 931 490 900 556 886 c 1
843 412 m 0
 843 466 785 493 707 508 c 1
 707 308 l 1
 775 316 843 338 843 412 c 0
538 -328 m 1
 538 1 l 1
 437 1 184 57 103 120 c 1
 167 391 l 1
 222 391 l 2
 222 391 388 310 544 310 c 1
 544 524 l 1
 382 559 79 621 79 960 c 0
 79 1156 248 1308 538 1343 c 1
 538 1638 l 1
 722 1638 l 1
 722 1345 l 1
 824 1344 1025 1301 1096 1255 c 1
 1043 980 l 1
 980 980 l 1
 913 1016 824 1044 714 1050 c 1
 714 858 l 1
 1043 810 1222 701 1222 459 c 0
 1222 238 1031 14 722 3 c 1
 722 -328 l 1
 538 -328 l 1
EndSplineSet
EndChar

StartChar: percent
Encoding: 5 37 23
Width: 2267
Flags: HW
LayerCount: 2
Fore
SplineSet
1734 -3 m 0
 1467 -3 1333 211 1333 431 c 0
 1333 649 1467 864 1734 867 c 1
 2001 867 2130 660 2130 443 c 0
 2130 220 1992 -3 1734 -3 c 0
1734 205 m 0
 1831 205 1881 321 1881 438 c 0
 1881 551 1831 666 1732 666 c 1
 1639 663 1588 541 1588 424 c 0
 1588 314 1635 205 1734 205 c 0
599 0 m 1
 1401 1528 l 1
 1665 1528 l 1
 863 0 l 1
 599 0 l 1
531 662 m 0
 264 662 128 874 128 1093 c 0
 128 1312 262 1529 530 1532 c 1
 798 1532 926 1323 926 1105 c 0
 926 883 789 662 531 662 c 0
530 868 m 0
 625 868 680 990 680 1107 c 0
 680 1217 630 1327 531 1327 c 0
 434 1327 380 1207 380 1090 c 0
 380 978 429 868 530 868 c 0
EndSplineSet
EndChar

StartChar: ampersand
Encoding: 6 38 24
Width: 1660
Flags: HW
LayerCount: 2
Back
SplineSet
737 999 m 1
 742 1052 744 1088 744 1136 c 0
 744 1220 699 1242 680 1248 c 1
 668 1243 635 1225 639 1151 c 1
 644 1101 703 1023 737 999 c 1
676 276 m 1
 762 260 835 281 901 320 c 1
 792 422 669 545 561 653 c 1
 531 605 557 510 557 504 c 0
 557 352 681 286 676 276 c 1
667 -25 m 0
 314 -25 100 183 100 444 c 0
 100 645 231 777 351 854 c 1
 262 936 205 1013 205 1154 c 0
 205 1322 342 1505 695 1505 c 0
 1017 1505 1192 1362 1187 1170 c 0
 1182 1016 1073 883 892 842 c 1
 986 745 1019 709 1114 613 c 1
 1119 692 1113 786 1116 803 c 1
 1548 774 l 1
 1523 647 1508 504 1371 376 c 1
 1448 304 1808 0 1808 0 c 1
 1234 0 l 1
 1234 0 1081 125 1103 104 c 1
 966 24 829 -25 667 -25 c 0
674 1249 m 1
 672 1249 671 1249 674 1249 c 1
EndSplineSet
Fore
SplineSet
737 999 m 1
 791 1052 844 1126 844 1174 c 0
 844 1244 775 1281 708 1281 c 0
 647 1281 589 1251 589 1187 c 0
 589 1131 702 1026 737 999 c 1
921 300 m 1
 521 693 l 1
 490 643 476 593 476 545 c 0
 476 382 634 247 780 247 c 0
 831 247 880 263 921 300 c 1
1187 1178 m 0
 1187 1017 1075 885 892 842 c 1
 1175 549 l 1
 1175 773 l 1
 1548 774 l 1
 1523 647 1508 504 1371 376 c 1
 1448 304 1808 0 1808 0 c 1
 1234 0 l 1
 1099 131 l 0
 1101 129 l 1
 995 35 829 -25 667 -25 c 0
 314 -25 100 183 100 444 c 0
 100 645 231 777 351 854 c 1
 262 936 205 1013 205 1154 c 0
 205 1322 342 1505 695 1505 c 0
 1013 1505 1187 1366 1187 1178 c 0
EndSplineSet
EndChar

StartChar: quotesingle
Encoding: 7 39 25
Width: 647
Flags: HW
LayerCount: 2
Fore
SplineSet
198 819 m 1
 153 1481 l 1
 497 1481 l 1
 458 819 l 1
 198 819 l 1
EndSplineSet
EndChar

StartChar: parenleft
Encoding: 8 40 26
Width: 890
Flags: HW
LayerCount: 2
Fore
SplineSet
459 -349 m 1
 232 -89 74 226 74 611 c 0
 74 1040 228 1313 459 1573 c 1
 831 1573 l 1
 826 1552 813 1531 808 1510 c 1
 633 1306 451 1005 451 611 c 0
 451 235 613 -75 808 -287 c 1
 813 -306 826 -329 831 -349 c 1
 459 -349 l 1
EndSplineSet
EndChar

StartChar: parenright
Encoding: 9 41 27
Width: 889
Flags: HW
LayerCount: 2
Fore
SplineSet
63 -349 m 1
 68 -329 81 -307 84 -287 c 1
 274 -77 444 225 444 611 c 0
 444 1003 263 1306 84 1510 c 1
 81 1533 68 1552 63 1573 c 1
 433 1573 l 1
 667 1312 818 1028 818 611 c 0
 818 221 664 -87 433 -349 c 1
 63 -349 l 1
EndSplineSet
EndChar

StartChar: asterisk
Encoding: 10 42 28
Width: 1168
Flags: HW
LayerCount: 2
Back
SplineSet
532 597 m 5
 490 607 451 639 451 701 c 4
 451 784 495 886 508 968 c 5
 505 965 498 960 492 955 c 4
 418 884 325 764 242 758 c 5
 194 771 156 819 144 869 c 5
 154 991 355 997 468 1045 c 5
 352 1094 149 1102 144 1222 c 5
 156 1271 194 1321 242 1334 c 5
 264 1332 287 1323 306 1310 c 5
 377 1267 447 1171 511 1120 c 5
 499 1215 451 1323 451 1417 c 5
 467 1467 516 1495 572 1495 c 5
 614 1486 656 1450 656 1392 c 4
 656 1306 609 1206 594 1120 c 5
 597 1123 606 1128 612 1133 c 4
 686 1202 774 1328 862 1334 c 5
 910 1321 950 1271 961 1222 c 5
 956 1102 747 1094 636 1045 c 5
 748 994 952 992 961 869 c 5
 950 819 908 771 862 758 c 5
 840 760 817 766 798 780 c 5
 729 822 656 915 595 968 c 5
 611 878 657 765 657 675 c 5
 641 624 588 597 532 597 c 5
EndSplineSet
Fore
SplineSet
521 1100 m 1
 521 1164 451 1299 451 1392 c 0
 451 1456 485 1495 553 1495 c 0
 624 1495 656 1450 656 1392 c 0
 656 1300 584 1163 584 1100 c 1
 521 1100 l 1
EndSplineSet
EndChar

StartChar: plus
Encoding: 11 43 29
Width: 1634
Flags: HW
LayerCount: 2
Fore
SplineSet
682 14 m 1
 682 441 l 1
 188 441 l 1
 188 708 l 1
 682 708 l 1
 682 1154 l 1
 959 1154 l 1
 959 708 l 1
 1451 708 l 1
 1451 441 l 1
 959 441 l 1
 959 14 l 1
 682 14 l 1
EndSplineSet
EndChar

StartChar: comma
Encoding: 12 44 30
Width: 591
Flags: HW
LayerCount: 2
Fore
SplineSet
106 -241 m 1
 182 352 l 1
 577 352 l 1
 292 -241 l 1
 106 -241 l 1
EndSplineSet
EndChar

StartChar: hyphen
Encoding: 13 45 31
Width: 845
Flags: HW
LayerCount: 2
Fore
SplineSet
98 429 m 1
 98 758 l 1
 749 758 l 1
 749 429 l 1
 98 429 l 1
EndSplineSet
EndChar

StartChar: period
Encoding: 14 46 32
Width: 776
Flags: HW
LayerCount: 2
Fore
SplineSet
398 -29 m 0
 276 -29 172 76 172 198 c 0
 172 321 276 424 398 424 c 0
 523 424 627 321 627 198 c 0
 627 76 523 -29 398 -29 c 0
EndSplineSet
EndChar

StartChar: slash
Encoding: 15 47 33
Width: 979
Flags: HW
LayerCount: 2
Fore
SplineSet
62 0 m 1
 620 1482 l 1
 915 1482 l 1
 355 0 l 1
 62 0 l 1
EndSplineSet
EndChar

StartChar: zero
Encoding: 16 48 34
Width: 1341
Flags: HW
LayerCount: 2
Fore
SplineSet
669 -23 m 4
 219 -23 99 336 99 801 c 4
 99 1213 258 1505 669 1505 c 4
 1123 1505 1242 1124 1242 683 c 4
 1242 242 1072 -23 669 -23 c 4
669 265 m 4
 776 265 787 408 787 744 c 4
 787 1056 771 1172 669 1172 c 4
 570 1172 551 1054 551 744 c 4
 551 415 566 265 669 265 c 4
EndSplineSet
EndChar

StartChar: one
Encoding: 17 49 35
Width: 1127
Flags: HW
LayerCount: 2
Fore
SplineSet
133 0 m 1
 133 324 l 1
 390 324 l 1
 390 1051 l 1
 145 1022 l 1
 145 1292 l 1
 334 1301 416 1338 442 1483 c 1
 617 1481 655 1484 830 1483 c 1
 830 324 l 1
 1072 324 l 1
 1072 0 l 1
 133 0 l 1
EndSplineSet
EndChar

StartChar: two
Encoding: 18 50 36
Width: 1309
Flags: HW
LayerCount: 2
Fore
SplineSet
129 2 m 1
 129 265 l 1
 235 353 719 744 719 973 c 0
 719 1120 617 1137 574 1137 c 0
 433 1137 296 1070 244 1052 c 1
 153 1369 l 1
 230 1435 450 1505 620 1505 c 0
 977 1505 1180 1321 1180 1034 c 0
 1180 735 811 393 714 340 c 1
 1247 340 l 1
 1247 2 l 1
 129 2 l 1
EndSplineSet
EndChar

StartChar: three
Encoding: 19 51 37
Width: 1249
Flags: HW
LayerCount: 2
Fore
SplineSet
586 -23 m 4
 357 -23 227 18 109 103 c 5
 109 488 l 5
 189 488 l 5
 189 488 270 324 483 324 c 4
 564 324 755 331 755 486 c 4
 755 596 704 632 574 632 c 6
 426 632 l 5
 426 899 l 5
 453 899 l 6
 582 899 706 897 706 1046 c 4
 706 1156 539 1161 527 1161 c 4
 288 1161 194 991 194 991 c 5
 109 991 l 5
 109 1366 l 5
 204 1432 418 1505 596 1505 c 4
 975 1505 1151 1317 1151 1103 c 4
 1151 917 1048 812 931 769 c 5
 1071 735 1205 622 1205 449 c 4
 1205 160 984 -23 586 -23 c 4
EndSplineSet
EndChar

StartChar: four
Encoding: 20 52 38
Width: 1325
Flags: HW
LayerCount: 2
Fore
SplineSet
394 560 m 5
 696 560 l 1
 696 1184 l 1
 394 560 l 5
696 0 m 1
 696 267 l 1
 26 267 l 1
 26 578 l 1
 522 1481 l 1
 1135 1481 l 1
 1135 560 l 1
 1297 560 l 1
 1297 267 l 1
 1135 267 l 1
 1135 0 l 1
 696 0 l 1
EndSplineSet
EndChar

StartChar: five
Encoding: 21 53 39
Width: 1255
Flags: HW
LayerCount: 2
Fore
SplineSet
570 -25 m 0
 349 -25 178 36 85 136 c 1
 85 486 l 1
 154 486 l 1
 154 486 276 330 509 330 c 0
 642 330 757 367 757 516 c 0
 757 668 635 724 508 724 c 1
 430 725 103 744 103 744 c 1
 103 1481 l 1
 1085 1481 l 1
 1085 1143 l 1
 542 1143 l 1
 542 990 l 2
 542 989 659 977 713 972 c 0
 851 957 1209 872 1209 521 c 0
 1209 156 941 -25 570 -25 c 0
EndSplineSet
EndChar

StartChar: six
Encoding: 22 54 40
Width: 1272
Flags: HW
LayerCount: 2
Fore
SplineSet
640 258 m 0
 734 258 778 349 778 493 c 0
 778 661 711 695 637 695 c 1
 594 696 512 632 512 501 c 0
 512 370 538 258 640 258 c 0
659 -25 m 0
 315 -25 92 178 92 560 c 0
 92 1190 413 1432 1041 1482 c 1
 1112 1171 l 1
 869 1146 667 1133 599 927 c 1
 666 940 735 985 833 985 c 0
 1094 985 1222 828 1222 512 c 0
 1222 180 1000 -25 659 -25 c 0
EndSplineSet
EndChar

StartChar: seven
Encoding: 23 55 41
Width: 1275
Flags: HW
LayerCount: 2
Fore
SplineSet
176 0 m 1
 721 1169 l 1
 310 1169 l 1
 310 1023 l 1
 77 1023 l 1
 77 1481 l 1
 1215 1481 l 1
 1215 1169 l 1
 693 0 l 1
 176 0 l 1
EndSplineSet
EndChar

StartChar: eight
Encoding: 24 56 42
Width: 1337
Flags: HW
LayerCount: 2
Fore
SplineSet
737 913 m 1
 790 954 799 988 799 1044 c 0
 799 1132 745 1213 668 1213 c 0
 570 1213 541 1116 541 1070 c 0
 541 947 554 970 737 913 c 1
685 276 m 0
 686 276 835 300 835 420 c 0
 835 451 865 613 571 618 c 1
 515 591 503 531 503 470 c 0
 503 355 599 276 685 276 c 0
668 -25 m 0
 261 -25 70 158 70 426 c 0
 70 562 108 655 272 727 c 1
 147 791 105 967 105 1066 c 0
 105 1295 295 1507 670 1507 c 0
 1031 1507 1200 1350 1224 1149 c 1
 1229 1043 1175 855 1032 799 c 1
 1217 720 1267 586 1267 419 c 0
 1267 159 1044 -25 668 -25 c 0
EndSplineSet
EndChar

StartChar: nine
Encoding: 25 57 43
Width: 1262
Flags: HW
LayerCount: 2
Fore
SplineSet
632 796 m 1
 681 795 734 857 734 954 c 0
 734 1138 702 1202 615 1202 c 0
 608 1202 496 1194 496 1006 c 0
 496 812 555 796 632 796 c 1
156 265 m 1
 268 256 582 286 648 537 c 1
 558 492 469 494 430 494 c 0
 298 494 43 575 43 967 c 0
 43 1292 271 1505 612 1505 c 0
 963 1505 1182 1292 1182 859 c 1
 1173 325 911 0 221 2 c 1
 194 119 186 160 156 265 c 1
EndSplineSet
EndChar

StartChar: colon
Encoding: 26 58 44
Width: 651
Flags: HW
LayerCount: 2
Fore
SplineSet
322 593 m 0
 200 593 102 693 102 815 c 0
 102 937 200 1037 322 1037 c 0
 444 1037 546 937 546 815 c 0
 546 693 444 593 322 593 c 0
322 0 m 0
 200 0 102 98 102 220 c 0
 102 342 200 441 322 441 c 0
 444 441 546 342 546 220 c 0
 546 98 444 0 322 0 c 0
EndSplineSet
EndChar

StartChar: semicolon
Encoding: 27 59 45
Width: 624
Flags: HW
LayerCount: 2
Fore
SplineSet
307 593 m 0
 186 593 87 693 87 815 c 0
 87 937 186 1037 307 1037 c 0
 429 1037 531 937 531 815 c 0
 531 693 429 593 307 593 c 0
79 -241 m 1
 155 352 l 1
 551 352 l 1
 266 -241 l 1
 79 -241 l 1
EndSplineSet
EndChar

StartChar: less
Encoding: 28 60 46
Width: 1266
Flags: HW
LayerCount: 2
Fore
SplineSet
1193 -16 m 5
 70 472 l 5
 70 681 l 5
 1193 1166 l 5
 1193 880 l 5
 472 576 l 5
 1193 265 l 5
 1193 -16 l 5
EndSplineSet
EndChar

StartChar: equal
Encoding: 29 61 47
Width: 1277
Flags: HW
LayerCount: 2
Fore
SplineSet
153 679 m 1
 153 926 l 1
 1123 926 l 1
 1123 679 l 1
 153 679 l 1
153 227 m 1
 153 474 l 1
 1123 474 l 1
 1123 227 l 1
 153 227 l 1
EndSplineSet
EndChar

StartChar: greater
Encoding: 30 62 48
Width: 1266
Flags: HW
LayerCount: 2
Fore
SplineSet
74 -16 m 5
 74 265 l 5
 795 576 l 5
 74 880 l 5
 74 1166 l 5
 1197 681 l 5
 1197 472 l 5
 74 -16 l 5
EndSplineSet
EndChar

StartChar: question
Encoding: 31 63 49
Width: 1256
Flags: HW
LayerCount: 2
Fore
SplineSet
590 -32 m 0
 454 -32 343 79 343 214 c 0
 343 348 454 459 590 459 c 0
 724 459 835 348 835 214 c 0
 835 79 724 -32 590 -32 c 0
709 595 m 1
 504 595 l 1
 666 680 760 843 760 972 c 0
 760 1078 689 1162 524 1162 c 0
 393 1162 247 1080 199 1025 c 1
 199 1370 l 1
 261 1406 408 1505 596 1505 c 0
 970 1505 1121 1321 1121 1117 c 0
 1121 904 957 668 709 595 c 1
EndSplineSet
EndChar

StartChar: at
Encoding: 32 64 50
Width: 1879
Flags: HW
LayerCount: 2
Fore
SplineSet
949 399 m 0
 987 399 1050 392 1147 433 c 1
 1190 882 l 1
 1147 940 1086 981 1029 981 c 0
 868 981 756 803 756 634 c 0
 756 461 857 399 949 399 c 0
1037 -154 m 0
 512 -154 146 197 146 688 c 0
 146 1185 523 1539 1034 1539 c 0
 1519 1539 1861 1215 1861 769 c 0
 1861 408 1686 196 1409 196 c 0
 1297 196 1223 217 1181 315 c 1
 1124 245 975 222 876 222 c 0
 676 222 530 415 530 614 c 0
 530 926 738 1182 985 1182 c 0
 1138 1182 1172 1121 1226 1094 c 1
 1232 1142 l 1
 1452 1142 l 1
 1382 528 l 2
 1379 503 1375 476 1375 456 c 0
 1375 422 1373 369 1458 369 c 0
 1632 369 1651 618 1651 751 c 0
 1651 1109 1387 1337 1039 1337 c 0
 637 1337 349 1063 349 685 c 0
 349 295 666 47 1034 47 c 0
 1192 47 1356 80 1487 151 c 1
 1540 16 l 1
 1397 -86 1205 -154 1037 -154 c 0
EndSplineSet
EndChar

StartChar: A
Encoding: 33 65 51
Width: 1498
Flags: W
HStem: 0 21G<-7 463.992 1027.84 1505> 237 322<628 864> 1461 20G<515.843 993.009>
LayerCount: 2
Fore
SplineSet
628 559 m 1
 864 559 l 5
 748 979 l 1
 628 559 l 1
-7 0 m 1
 523 1481 l 1
 986 1481 l 1
 1505 0 l 1
 1034 0 l 5
 961 237 l 5
 529 237 l 1
 458 0 l 1
 -7 0 l 1
EndSplineSet
EndChar

StartChar: B
Encoding: 34 66 52
Width: 1504
Flags: HW
LayerCount: 2
Fore
SplineSet
604 878 m 1
 809 878 913 889 913 1028 c 0
 913 1163 811 1177 604 1177 c 1
 604 878 l 1
604 305 m 1
 745 305 l 2
 813 305 941 329 941 455 c 0
 941 609 795 623 626 623 c 0
 619 623 611 623 604 623 c 1
 604 305 l 1
1104 773 m 1
 1273 731 1428 615 1428 419 c 0
 1428 119 1140 0 811 0 c 2
 146 0 l 1
 146 1481 l 1
 568 1481 l 2
 1024 1481 1328 1411 1328 1087 c 0
 1329 947 1256 841 1104 781 c 1
 1104 773 l 1
EndSplineSet
EndChar

StartChar: C
Encoding: 35 67 53
Width: 1452
Flags: W
HStem: -24 343<741.832 1158.15> 1039 21G<1230.51 1294.07> 1158 347<755.926 1150.81>
VStem: 99 474<502.451 956.374>
LayerCount: 2
Fore
SplineSet
885 -24 m 0
 368 -24 99 251 99 738 c 0
 99 1226 422 1505 885 1505 c 0
 1075 1505 1221 1468 1380 1398 c 1
 1289 1039 l 1
 1289 1039 1135 1158 941 1158 c 0
 673 1158 573 966 573 734 c 0
 573 479 670 319 947 319 c 0
 1120 319 1301 432 1301 432 c 1
 1380 102 l 1
 1203 11 1078 -24 885 -24 c 0
EndSplineSet
EndChar

StartChar: D
Encoding: 36 68 54
Width: 1601
Flags: HW
LayerCount: 2
Fore
SplineSet
146 0 m 5
 146 1481 l 5
 638 1481 l 6
 1180 1481 1502 1306 1502 737 c 4
 1502 164 1160 0 628 0 c 6
 146 0 l 5
607 326 m 5
 669 326 l 6
 916 326 1027 427 1027 735 c 4
 1027 1021 938 1155 757 1155 c 6
 607 1155 l 5
 607 326 l 5
EndSplineSet
EndChar

StartChar: E
Encoding: 37 69 55
Width: 1344
Flags: HW
LayerCount: 2
Fore
SplineSet
146 0 m 5
 146 1481 l 5
 1274 1481 l 5
 1274 1155 l 5
 604 1155 l 5
 604 928 l 5
 1185 928 l 5
 1185 606 l 5
 604 606 l 5
 604 326 l 5
 1272 326 l 5
 1272 0 l 5
 146 0 l 5
EndSplineSet
EndChar

StartChar: F
Encoding: 38 70 56
Width: 1280
Flags: HW
LayerCount: 2
Fore
SplineSet
146 0 m 5
 146 1481 l 5
 1253 1481 l 5
 1253 1155 l 5
 604 1155 l 5
 604 900 l 5
 1191 900 l 5
 1191 577 l 5
 604 577 l 5
 604 0 l 5
 146 0 l 5
EndSplineSet
EndChar

StartChar: G
Encoding: 39 71 57
Width: 1563
Flags: HW
LayerCount: 2
Fore
SplineSet
866 -24 m 0
 377 -24 99 268 99 740 c 0
 99 1235 368 1505 861 1505 c 0
 1159 1505 1257 1458 1456 1341 c 1
 1370 1010 l 2
 1370 1013 1179 1158 970 1158 c 0
 681 1158 573 1000 573 746 c 0
 573 488 663 312 866 312 c 0
 996 312 1126 339 1128 335 c 1
 1128 552 l 1
 804 552 l 1
 804 832 l 1
 1453 832 l 1
 1453 159 l 1
 1401 62 1093 -24 866 -24 c 0
EndSplineSet
EndChar

StartChar: H
Encoding: 40 72 58
Width: 1615
Flags: W
HStem: 0 21G<146 607 1008 1469> 617 324<607 1008> 1461 20G<146 607 1008 1469>
VStem: 146 461<0 617 941 1481> 1008 461<0 617 941 1481>
LayerCount: 2
Fore
SplineSet
146 0 m 1
 146 1481 l 1
 607 1481 l 1
 607 941 l 1
 1008 941 l 1
 1008 1481 l 1
 1469 1481 l 1
 1469 0 l 1
 1008 0 l 1
 1008 617 l 1
 607 617 l 1
 607 0 l 1
 146 0 l 1
EndSplineSet
EndChar

StartChar: I
Encoding: 41 73 59
Width: 979
Flags: W
HStem: 0 326<37 259 720 942> 1155 326<37 259 720 942>
VStem: 259 461<326 1155>
LayerCount: 2
Fore
SplineSet
37 0 m 5
 37 326 l 5
 259 326 l 5
 259 1155 l 5
 37 1155 l 5
 37 1481 l 5
 942 1481 l 5
 942 1155 l 5
 720 1155 l 5
 720 326 l 5
 942 326 l 5
 942 0 l 5
 37 0 l 5
EndSplineSet
EndChar

StartChar: J
Encoding: 42 74 60
Width: 1221
Flags: HW
LayerCount: 2
Fore
SplineSet
445 -21 m 0
 257 -21 122 -2 5 69 c 1
 76 396 l 1
 176 355 271 338 356 338 c 0
 493 338 612 430 612 652 c 2
 612 1108 l 1
 327 1108 l 1
 327 1481 l 1
 1074 1481 l 1
 1074 473 l 2
 1074 169 776 -21 445 -21 c 0
EndSplineSet
EndChar

StartChar: K
Encoding: 43 75 61
Width: 1567
Flags: HW
LayerCount: 2
Fore
SplineSet
146 0 m 1
 146 1481 l 1
 604 1481 l 1
 604 859 l 1
 606 859 l 1
 687 992 l 1
 1029 1481 l 1
 1549 1481 l 1
 1057 796 l 1
 1579 0 l 1
 1025 0 l 1
 754 446 l 1
 671 576 l 1
 604 474 l 1
 604 0 l 1
 146 0 l 1
EndSplineSet
EndChar

StartChar: L
Encoding: 44 76 62
Width: 1258
Flags: HW
LayerCount: 2
Fore
SplineSet
146 0 m 5
 146 1481 l 5
 607 1481 l 5
 607 326 l 5
 1209 326 l 5
 1209 0 l 5
 146 0 l 5
EndSplineSet
EndChar

StartChar: M
Encoding: 45 77 63
Width: 1914
Flags: HW
LayerCount: 2
Fore
SplineSet
146 0 m 5
 146 1481 l 5
 648 1481 l 5
 954 707 l 5
 1262 1481 l 5
 1768 1481 l 5
 1768 0 l 5
 1312 0 l 5
 1312 617 l 6
 1314 785 l 5
 1108 233 l 5
 781 233 l 5
 576 785 l 5
 580 617 l 6
 580 0 l 5
 146 0 l 5
EndSplineSet
EndChar

StartChar: N
Encoding: 46 78 64
Width: 1615
Flags: HW
LayerCount: 2
Fore
SplineSet
146 0 m 1
 146 1481 l 1
 646 1481 l 1
 1060 827 l 1
 1050 1136 l 1
 1050 1481 l 1
 1468 1481 l 1
 1468 0 l 1
 1048 0 l 1
 558 858 l 1
 566 504 l 2
 566 0 l 1
 146 0 l 1
EndSplineSet
EndChar

StartChar: O
Encoding: 47 79 65
Width: 1606
Flags: W
HStem: -24 343<678.107 932.03> 1158 347<676.471 930.91>
VStem: 100 472<446.129 1034.55> 1036 470<444.792 1037.66>
LayerCount: 2
Fore
SplineSet
804 -24 m 0
 346 -24 100 243 100 740 c 0
 100 1240 349 1505 804 1505 c 0
 1260 1505 1506 1242 1506 740 c 0
 1506 243 1262 -24 804 -24 c 0
806 319 m 0
 970 319 1036 453 1036 740 c 0
 1036 1037 966 1158 806 1158 c 0
 647 1158 572 1041 572 740 c 0
 572 442 645 319 806 319 c 0
EndSplineSet
EndChar

StartChar: P
Encoding: 48 80 66
Width: 1463
Flags: HW
LayerCount: 2
Fore
SplineSet
607 789 m 1
 795 790 976 803 976 1002 c 0
 976 1188 731 1164 664 1164 c 2
 607 1164 l 1
 607 789 l 1
146 0 m 1
 146 1481 l 1
 881 1481 l 2
 1158 1481 1447 1349 1447 1008 c 0
 1447 712 1234 471 859 471 c 2
 607 471 l 1
 607 0 l 1
 146 0 l 1
EndSplineSet
EndChar

StartChar: Q
Encoding: 49 81 67
Width: 1606
Flags: HW
LayerCount: 2
Fore
SplineSet
804 -24 m 4
 346 -24 99 243 99 740 c 0
 99 1240 349 1505 804 1505 c 0
 1260 1505 1506 1242 1506 740 c 0
 1506 368 1369 124 1108 25 c 1
 1249 -335 l 1
 1047 -423 l 1
 888 -22 l 1
 861 -24 833 -24 804 -24 c 4
964 393 m 1
 1013 460 1035 575 1035 740 c 0
 1035 1037 966 1158 806 1158 c 0
 647 1158 572 1041 572 740 c 0
 572 479 637 352 781 325 c 1
 712 498 l 1
 712 498 922 498 923 498 c 2
 964 393 l 1
EndSplineSet
EndChar

StartChar: R
Encoding: 50 82 68
Width: 1515
Flags: HW
LayerCount: 2
Fore
SplineSet
604 851 m 5
 663 851 l 6
 873 851 965 867 965 1017 c 4
 965 1154 885 1164 642 1164 c 6
 604 1164 l 5
 604 851 l 5
146 0 m 5
 146 1481 l 5
 612 1481 l 6
 938 1481 1430 1517 1430 1042 c 4
 1430 818 1322 699 1112 615 c 5
 1482 94 l 5
 1482 0 l 5
 1004 0 l 5
 681 534 l 5
 604 534 l 5
 604 0 l 5
 146 0 l 5
EndSplineSet
EndChar

StartChar: S
Encoding: 51 83 69
Width: 1406
Flags: HW
LayerCount: 2
Fore
SplineSet
672 -24 m 4
 422 -24 232 34 74 124 c 1
 136 469 l 1
 212 469 l 1
 362 376 503 311 668 311 c 4
 696 311 872 300 872 423 c 0
 872 579 659 528 458 584 c 0
 200 656 109 790 109 1027 c 0
 109 1296 372 1505 738 1505 c 0
 935 1505 1137 1454 1285 1382 c 1
 1227 1033 l 1
 1150 1033 l 1
 1039 1114 896 1167 727 1167 c 0
 634 1167 578 1139 578 1071 c 0
 578 987 641 981 894 935 c 1
 1184 884 1340 722 1340 483 c 0
 1340 179 1083 -24 672 -24 c 4
EndSplineSet
EndChar

StartChar: T
Encoding: 52 84 70
Width: 1272
Flags: HW
LayerCount: 2
Fore
SplineSet
404 0 m 5
 404 1155 l 5
 -6 1155 l 5
 -6 1481 l 5
 1278 1481 l 5
 1278 1155 l 5
 868 1155 l 5
 868 0 l 5
 404 0 l 5
EndSplineSet
EndChar

StartChar: U
Encoding: 53 85 71
Width: 1577
Flags: HW
LayerCount: 2
Fore
SplineSet
788 -24 m 0
 396 -24 132 176 132 521 c 2
 132 1481 l 1
 593 1481 l 1
 593 572 l 2
 593 418 647 319 787 319 c 4
 918 319 985 412 985 575 c 2
 985 1481 l 1
 1445 1481 l 1
 1445 522 l 2
 1445 184 1197 -24 788 -24 c 0
EndSplineSet
EndChar

StartChar: V
Encoding: 54 86 72
Width: 1337
Flags: HW
LayerCount: 2
Fore
SplineSet
467 0 m 1
 -29 1481 l 1
 444 1481 l 1
 609 879 l 1
 672 639 l 5
 673 639 l 5
 733 882 l 1
 907 1481 l 1
 1366 1481 l 1
 865 0 l 1
 467 0 l 1
EndSplineSet
EndChar

StartChar: W
Encoding: 55 87 73
Width: 2096
Flags: HW
LayerCount: 2
Fore
SplineSet
382 0 m 5
 4 1481 l 5
 488 1481 l 5
 604 801 l 5
 630 623 l 5
 634 623 l 5
 696 865 l 5
 854 1481 l 5
 1246 1481 l 5
 1416 784 l 6
 1456 625 l 5
 1482 777 l 4
 1614 1481 l 5
 2092 1481 l 5
 1716 0 l 5
 1232 0 l 5
 1040 703 l 5
 862 0 l 5
 382 0 l 5
EndSplineSet
EndChar

StartChar: X
Encoding: 56 88 74
Width: 1401
Flags: HW
LayerCount: 2
Fore
SplineSet
-32 0 m 1
 410 755 l 1
 -10 1481 l 1
 532 1481 l 1
 600 1326 l 0
 702 1098 l 1
 806 1319 l 1
 872 1481 l 1
 1380 1481 l 1
 978 780 l 1
 1432 0 l 1
 894 0 l 1
 778 241 l 1
 692 426 l 1
 586 233 l 1
 476 0 l 1
 -32 0 l 1
EndSplineSet
EndChar

StartChar: Y
Encoding: 57 89 75
Width: 1418
Flags: HW
LayerCount: 2
Fore
SplineSet
490 0 m 5
 490 563 l 5
 8 1481 l 5
 490 1481 l 5
 724 1005 l 5
 946 1481 l 5
 1410 1481 l 5
 944 576 l 5
 944 0 l 5
 490 0 l 5
EndSplineSet
EndChar

StartChar: Z
Encoding: 58 90 76
Width: 1279
Flags: HW
LayerCount: 2
Fore
SplineSet
28 0 m 5
 28 320 l 5
 651 1155 l 5
 63 1155 l 5
 63 1481 l 5
 1229 1481 l 5
 1229 1161 l 5
 608 326 l 5
 1262 326 l 5
 1262 0 l 5
 28 0 l 5
EndSplineSet
EndChar

StartChar: bracketleft
Encoding: 59 91 77
Width: 924
Flags: HW
LayerCount: 2
Fore
SplineSet
175 -362 m 5
 175 1546 l 5
 816 1546 l 5
 816 1298 l 5
 520 1298 l 5
 520 -116 l 5
 816 -116 l 5
 816 -362 l 5
 175 -362 l 5
EndSplineSet
EndChar

StartChar: backslash
Encoding: 60 92 78
Width: 1277
Flags: HW
LayerCount: 2
Fore
SplineSet
827 0 m 5
 249 1481 l 5
 542 1481 l 5
 1123 0 l 5
 827 0 l 5
EndSplineSet
EndChar

StartChar: bracketright
Encoding: 61 93 79
Width: 924
Flags: HW
LayerCount: 2
Fore
SplineSet
108 -362 m 5
 108 -116 l 5
 406 -116 l 5
 406 1298 l 5
 108 1298 l 5
 108 1546 l 5
 752 1546 l 5
 752 -362 l 5
 108 -362 l 5
EndSplineSet
EndChar

StartChar: asciicircum
Encoding: 62 94 80
Width: 1588
Flags: HW
LayerCount: 2
Fore
SplineSet
185 603 m 5
 666 1399 l 5
 899 1399 l 5
 1407 606 l 5
 1116 606 l 5
 781 1146 l 5
 475 603 l 5
 185 603 l 5
EndSplineSet
EndChar

StartChar: underscore
Encoding: 63 95 81
Width: 1477
Flags: HW
LayerCount: 2
Fore
SplineSet
-23 -201 m 5
 -23 0 l 5
 1503 0 l 5
 1503 -201 l 5
 -23 -201 l 5
EndSplineSet
EndChar

StartChar: grave
Encoding: 64 96 82
Width: 1039
Flags: HW
LayerCount: 2
Fore
SplineSet
516 1186 m 1
 197 1534 l 1
 578 1534 l 1
 795 1186 l 1
 516 1186 l 1
EndSplineSet
EndChar

StartChar: a
Encoding: 65 97 83
Width: 1184
Flags: W
HStem: -24 249<280.5 554.43> 0 21G<722 1087> 493 161<510.614 701> 787 272<230.858 679.444>
VStem: 52 396<239.017 435.649> 701 386<294.783 493 654 755.227> 722 365<0 219>
LayerCount: 2
Fore
SplineSet
536 225 m 0xbc
 580 225 701 246 701 493 c 1
 564 476 448 466 448 332 c 0
 448 290 475 225 536 225 c 0xbc
380 -24 m 0
 181 -24 52 124 52 306 c 0
 52 621 343 654 701 654 c 1
 701 749 675 787 506 787 c 0
 403 787 252 755 197 730 c 1
 131 986 l 1
 162 999 363 1059 521 1059 c 0
 882 1059 1087 975 1087 733 c 2xbc
 1087 0 l 1
 722 0 l 5
 722 219 l 5x7a
 659 56 525 -24 380 -24 c 0
EndSplineSet
EndChar

StartChar: b
Encoding: 66 98 84
Width: 1311
Flags: W
HStem: -24 286.795<599.455 967.5> 0 21G<121 509> 786.812 272.188<636.213 965.5> 1460.99 20G<121 509>
VStem: 121 388<0 132 265.92 757.934 936 1480.99> 826 403<333.729 722.537>
LayerCount: 2
Back
SplineSet
605 284 m 0
 775 284 826 368 826 527 c 0
 826 733.376 746.266 784.813 666.775 784.813 c 0
 587.767 784.813 509 734 509 734 c 1
 509 292 l 1
 510 292.053 511.1 292.078 512.289 292.078 c 0
 533.698 292.078 584.158 284 605 284 c 0
816 -24 m 0
 694 -24 588 44 509 132 c 1
 509 0 l 1
 121 0 l 1
 121 1480.99 l 1
 509 1480.99 l 1
 509 936 l 1
 617 1005 711 1059 846 1059 c 0
 1145 1059 1229 848 1229 522 c 0
 1229 230 1095 -24 816 -24 c 0
EndSplineSet
Fore
SplineSet
826 527 m 0xbc
 826 733.376 746.266 786.812 666.774 786.812 c 0
 587.768 786.812 509 734 509 734 c 1
 509 271 l 1
 548.504 265.709 583.784 262.795 615.126 262.795 c 0
 766.454 262.795 826 330.721 826 527 c 0xbc
828 -24 m 4
 706 -24 588 44 509 132 c 1
 509 0 l 1
 121 0 l 1x7c
 121 1480.99 l 1
 509 1480.99 l 1
 509 936 l 1
 617 1005 681 1059 816 1059 c 0
 1115 1059 1229 848 1229 522 c 0
 1229 230 1107 -24 828 -24 c 4
EndSplineSet
EndChar

StartChar: c
Encoding: 67 99 85
Width: 1107
Flags: HW
LayerCount: 2
Back
SplineSet
664 -28 m 0
 358 -28 80 138 80 518 c 0
 80 922 380 1059 657 1059 c 0
 781 1059 920 1029 1056 954 c 1
 998 705 l 1
 941 751 806 787 726 787 c 0
 602 787 483 716 483 517 c 0
 483 307 626 244 730 244 c 0
 842 244 950 290 1002 324 c 1
 1061 73 l 1
 954 14 808 -28 664 -28 c 0
EndSplineSet
Fore
SplineSet
664 -24 m 0
 358 -24 80 138 80 518 c 0
 80 922 380 1059 657 1059 c 0
 781 1059 920 1029 1056 954 c 1
 998 705 l 1
 919 758 825 787 738 787 c 0
 600 787 483 711 483 517 c 0
 483 307 626 248 730 248 c 0
 842 248 950 290 1002 324 c 1
 1061 73 l 1
 954 14 808 -24 664 -24 c 0
EndSplineSet
EndChar

StartChar: d
Encoding: 68 100 86
Width: 1309
Flags: W
HStem: -24 287<361.5 711.5> 0 21G<802 1190> 787 272<371.5 704.669> 1461 20G<802 1190>
VStem: 82 403<328.319 725.642> 802 388<0 129 266.116 758.019 961 1481>
LayerCount: 2
Back
SplineSet
482 527 m 4
 482 733 562 787 641 787 c 4
 720 787 799 734 799 734 c 5
 799 271 l 5
 759 266 724 263 693 263 c 4
 542 263 482 331 482 527 c 4
492 -24 m 0
 614 -24 720 44 799 132 c 1
 799 0 l 1
 1187 0 l 1
 1187 1481 l 1
 799 1481 l 1
 799 936 l 1
 691 1005 597 1059 462 1059 c 0
 163 1059 79 848 79 522 c 0
 79 230 213 -24 492 -24 c 0
EndSplineSet
Fore
SplineSet
485 527 m 0xbc
 485 331 545 263 696 263 c 0
 727 263 762 266 802 271 c 1
 802 734 l 1
 802 734 723 787 644 787 c 0
 565 787 485 733 485 527 c 0xbc
500 -24 m 0
 223 -24 82 218 82 536 c 0
 82 847 228 1059 515 1059 c 0
 625 1059 700 1024 802 961 c 1
 802 1481 l 1
 1190 1481 l 1
 1190 0 l 1
 802 0 l 1x7c
 802 129 l 1
 739 37 621 -24 500 -24 c 0
EndSplineSet
EndChar

StartChar: e
Encoding: 69 101 87
Width: 1210
Flags: W
HStem: -24 265.437<566.021 953.125> 447 191<461 833> 833 226<527.698 762.521>
VStem: 80 381<336.919 447 638 753.141>
LayerCount: 2
Back
SplineSet
467 638 m 1
 818 638 l 1
 813 774 735 819 630 819 c 0
 543 819 473 741 467 638 c 1
710 -25 m 0
 317 -25 80 131 80 515 c 0
 80 878 308 1061 652 1061 c 0
 954 1061 1153 901 1153 617 c 2
 1153 442 l 1
 476 442 l 1
 491 285 606 245 744 245 c 0
 847 245 966 288 1045 327 c 1
 1087 327 l 1
 1133 85 l 1
 1034 19 916 -25 710 -25 c 0
EndSplineSet
Fore
SplineSet
452 638 m 5
 833 638 l 1
 828 774 735 833 630 833 c 4
 543 833 458 741 452 638 c 5
710 -24 m 0
 317 -24 80 131 80 515 c 0
 80 878 308 1059 652 1059 c 0
 954 1059 1137 901 1137 617 c 2
 1137 447 l 1
 461 447 l 5
 475.517 295.056 608.921 241.437 742.062 241.437 c 0
 836.986 241.437 923.402 268.692 1001 307 c 1
 1073 307 l 1
 1117 85 l 1
 1018 19 916 -24 710 -24 c 0
EndSplineSet
EndChar

StartChar: f
Encoding: 70 102 88
Width: 755
Flags: HW
LayerCount: 2
Fore
SplineSet
132 0 m 1
 132 808 l 1
 7 808 l 1
 7 1038 l 1
 132 1038 l 1
 132 1099 l 2
 132 1350 287 1466 556 1466 c 0
 630 1466 713 1458 770 1452 c 1
 770 1200 l 1
 734.998 1203.46 702.674 1206.06 673.577 1206.06 c 0
 572.221 1206.06 510 1174.53 510 1038 c 1
 754 1038 l 1
 754 808 l 1
 519 808 l 1
 519 0 l 1
 132 0 l 1
EndSplineSet
EndChar

StartChar: g
Encoding: 71 103 89
Width: 1231
Flags: W
HStem: -408 275<284.723 709.382> 9 277<514.583 692.676> 765 295<330.5 661.5>
VStem: 80 401<320.098 701.53> 738 400<-95.365 113 298.774 766.218 904 1035>
LayerCount: 2
Fore
SplineSet
629 286 m 0
 682 286 707 307 738 320 c 1
 738 755 l 1
 695 773 662 765 661 765 c 0
 533 765 481 657 481 551 c 0
 481 378 479 286 629 286 c 0
545 -408 m 0
 392 -408 252 -363 157 -325 c 1
 220 -64 l 1
 329 -112 454 -133 508 -133 c 0
 687 -133 745 -116 746 59 c 5
 746 113 l 1
 721 46 613 9 533 9 c 0
 211 9 80 195 80 542 c 0
 80 843 194 1060 467 1060 c 0
 575 1060 649 1025 738 904 c 1
 739 1035 l 1
 1138 1035 l 1
 1138 74 l 2
 1138 -298 840 -408 545 -408 c 0
EndSplineSet
EndChar

StartChar: h
Encoding: 72 104 90
Width: 1253
Flags: W
HStem: 0 21G<124 512 757 1145> 741 319<595.5 907.5> 1461 20G<124 512>
VStem: 124 388<0 708.48 877 1481> 757 388<0 708.885>
LayerCount: 2
Fore
SplineSet
124 0 m 1
 124 1481 l 1
 512 1481 l 1
 512 877 l 1
 537 929 624 1060 798 1060 c 0
 1017 1060 1145 921 1145 675 c 2
 1145 0 l 1
 757 0 l 1
 757 506 l 2
 757 661 752 741 626 741 c 0
 565 741 512 677 512 571 c 2
 512 0 l 1
 124 0 l 1
EndSplineSet
EndChar

StartChar: i
Encoding: 73 105 91
Width: 692
Flags: W
HStem: 0 21G<153 541> 1018 20G<153 541> 1204 375<194.242 498.165>
VStem: 124 445<1270.5 1510.3> 153 388<0 1038>
LayerCount: 2
Fore
SplineSet
346 1204 m 4xf0
 197 1204 124 1284 124 1391 c 0
 124 1496 198 1579 346 1579 c 0
 495 1579 569 1495 569 1389 c 0
 569 1282 494 1204 346 1204 c 4xf0
153 0 m 1xe8
 153 1038 l 1
 541 1038 l 1
 541 0 l 1
 153 0 l 1xe8
EndSplineSet
EndChar

StartChar: j
Encoding: 74 106 92
Width: 740
Flags: HW
LayerCount: 2
Fore
SplineSet
413 1204 m 0
 264 1204 191 1284 191 1391 c 0
 191 1496 265 1579 413 1579 c 0
 562 1579 636 1495 636 1389 c 0
 636 1282 561 1204 413 1204 c 0
162 -405 m 0
 59 -405 -47 -391 -79 -388 c 1
 -79 -113 l 1
 -79 -113 2 -119 33 -119 c 0
 135 -119 201 -83 201 122 c 2
 201 1038 l 1
 588 1038 l 1
 588 -81 l 2
 588 -301 393 -405 162 -405 c 0
EndSplineSet
EndChar

StartChar: k
Encoding: 75 107 93
Width: 1219
Flags: W
HStem: 0 21G<121 509 790.888 1210> 1018 20G<764.901 1203> 1461 20G<121 509>
VStem: 121 388<0 355 655 1481>
LayerCount: 2
Back
SplineSet
121 0 m 1
 121 1481 l 5
 509 1481 l 5
 509 655 l 1
 779 1038 l 1
 1203 1038 l 1
 1203 994 l 1
 912 621 l 1
 1230 87 l 1
 1230 0 l 1
 801 0 l 1
 576 445 l 1
 509 355 l 1
 509 0 l 1
 121 0 l 1
EndSplineSet
Fore
SplineSet
121 0 m 1
 121 1481 l 1
 509 1481 l 1
 509 655 l 1
 779 1038 l 1
 1203 1038 l 1
 1203 994 l 1
 892 597 l 1
 1210 87 l 1
 1210 0 l 1
 801 0 l 1
 576 445 l 1
 509 355 l 1
 509 0 l 1
 121 0 l 1
EndSplineSet
EndChar

StartChar: l
Encoding: 76 108 94
Width: 684
Flags: HW
LayerCount: 2
Fore
SplineSet
544 -5 m 2
 149 -5 124 155 124 352 c 2
 124 1481 l 5
 511 1481 l 5
 511 377 l 2
 511 313 537 247 632 247 c 1
 632 -5 l 1
 544 -5 l 2
EndSplineSet
EndChar

StartChar: m
Encoding: 77 109 95
Width: 1870
Flags: HW
LayerCount: 2
Back
SplineSet
124 0 m 5
 124 1038 l 5
 512 1038 l 5
 512 835 l 5
 553 942 677 1060 822 1060 c 4
 972 1060 1148 947 1148 701 c 6
 1148 0 l 5
 760 0 l 5
 760 521 l 6
 760 693 736 756 621 756 c 4
 544 756 512 683 512 638 c 6
 512 0 l 5
 124 0 l 5
EndSplineSet
Fore
SplineSet
121 0 m 1
 121 1038 l 1
 509 1038 l 1
 509 850 l 1
 585 983 701 1060 829 1060 c 0
 944 1060 1053 1002 1101 852 c 1
 1168 1004 1315 1060 1438 1060 c 0
 1620 1060 1774 948 1774 682 c 2
 1774 0 l 1
 1386 0 l 1
 1386 507 l 6
 1386 696 1376 756 1251 756 c 4
 1224 756 1141 721 1141 682 c 6
 1141 0 l 1
 754 0 l 1
 754 532 l 2
 754 700 734 756 621 756 c 0
 574 756 509 737 509 682 c 2
 509 0 l 1
 121 0 l 1
EndSplineSet
EndChar

StartChar: n
Encoding: 78 110 96
Width: 1246
Flags: W
HStem: 0 21G<124 512 760 1148> 756 304<582.5 897> 1018 20G<124 512>
VStem: 124 388<0 734.225 835 1038> 760 388<0 723.673>
LayerCount: 2
Back
SplineSet
817 1062 m 4
 985 1062 1159 945 1159 699 c 6
 1159 0 l 5
 756 0 l 5
 756 523 l 6
 756 695 735 775 617 775 c 4
 582 775 512 740 512 681 c 6
 512 0 l 5
 125 0 l 5
 125 1038 l 5
 512 1038 l 5
 512 867 l 5
 575 1010 702 1062 817 1062 c 4
EndSplineSet
Fore
SplineSet
124 0 m 5xd8
 124 1038 l 5
 512 1038 l 5xb8
 512 835 l 5
 553 942 677 1060 822 1060 c 4
 972 1060 1148 947 1148 701 c 6
 1148 0 l 5
 760 0 l 5
 760 521 l 6
 760 693 736 756 621 756 c 4
 544 756 512 683 512 638 c 6
 512 0 l 5
 124 0 l 5xd8
EndSplineSet
EndChar

StartChar: o
Encoding: 79 111 97
Width: 1258
Flags: W
HStem: -24 272<524.853 722.403> 787 272<525.187 721.957>
VStem: 80 403<288.836 743.906> 774 404<297.151 734.522>
LayerCount: 2
Fore
SplineSet
629 -24 m 0
 239 -24 80 180 80 517 c 0
 80 855 236 1059 629 1059 c 0
 1015 1059 1178 853 1178 516 c 0
 1178 181 1015 -24 629 -24 c 0
633 248 m 0
 721 248 774 303 774 516 c 0
 774 758 701 787 629 787 c 0
 555 787 483 771 483 515 c 0
 483 264 550 248 633 248 c 0
EndSplineSet
EndChar

StartChar: p
Encoding: 80 112 98
Width: 1308
Flags: W
HStem: -392 21G<121 509> -24 286.795<552.064 915> 786.812 272.188<637.732 943> 1018 20G<121 509>
VStem: 121 388<-392 43 265.92 757.934 867 1038> 826 402<329.007 724.845>
LayerCount: 2
Back
SplineSet
826 527 m 4
 826 733.376 746.266 786.812 666.774 786.812 c 4
 587.768 786.812 509 734 509 734 c 5
 509 271 l 5
 548.504 265.709 583.784 262.795 615.126 262.795 c 4
 766.454 262.795 826 330.721 826 527 c 4
816 -24 m 4
 694 -24 588 44 509 132 c 5
 509 0 l 5
 121 0 l 5
 121 1480.99 l 5
 509 1480.99 l 5
 509 936 l 5
 617 1005 711 1059 846 1059 c 4
 1145 1059 1229 848 1229 522 c 4
 1229 230 1095 -24 816 -24 c 4
EndSplineSet
Fore
SplineSet
826 527 m 0xec
 826 733.376 746.266 786.812 666.774 786.812 c 0
 587.768 786.812 509 734 509 734 c 1
 509 271 l 1
 548.504 265.709 583.784 262.795 615.126 262.795 c 0
 766.454 262.795 826 330.721 826 527 c 0xec
121 -392 m 1
 121 1038 l 1
 509 1038 l 1xdc
 509 867 l 1
 574 991 666 1059 803 1059 c 0
 1083 1059 1228 850 1228 530 c 0
 1228 196.9 1056 -24 774 -24 c 0
 672 -24 606 -11 509 43 c 1
 509 -392 l 1
 121 -392 l 1
EndSplineSet
EndChar

StartChar: q
Encoding: 81 113 99
Width: 1309
Flags: HW
LayerCount: 2
Back
SplineSet
430 527 m 4
 430 733 510 787 589 787 c 4
 668 787 747 734 747 734 c 5
 747 271 l 5
 707 266 672 263 641 263 c 4
 490 263 430 331 430 527 c 4
440 -24 m 0
 562 -24 668 44 747 132 c 1
 747 0 l 1
 1135 0 l 1
 1135 1481 l 1
 747 1481 l 1
 747 936 l 1
 639 1005 545 1059 410 1059 c 0
 111 1059 27 848 27 522 c 0
 27 230 161 -24 440 -24 c 0
EndSplineSet
Fore
SplineSet
485 527 m 0
 485 331 545 263 696 263 c 0
 727 263 762 266 802 271 c 1
 802 734 l 1
 802 734 723 787 644 787 c 0
 565 787 485 733 485 527 c 0
802 -392 m 1
 802 72 l 1
 735 10 651 -24 547 -24 c 0
 256 -24 82 200 82 540 c 0
 82 846 178 1059 488 1059 c 0
 582 1059 737 1009 802 907 c 1
 802 1038 l 1
 1190 1038 l 1
 1190 -392 l 1
 802 -392 l 1
EndSplineSet
EndChar

StartChar: r
Encoding: 82 114 100
Width: 910
Flags: HW
LayerCount: 2
Fore
SplineSet
124 0 m 1
 124 1038 l 1
 512 1038 l 1
 512 904 l 1
 518 912 525 919 533 927 c 0
 597 983 697 1039 810 1039 c 0
 846 1039 888 1028 915 1015 c 1
 856 679 l 1
 824 694 784 710 725 710 c 0
 665 710 558 695 512 633 c 1
 512 0 l 1
 124 0 l 1
EndSplineSet
EndChar

StartChar: s
Encoding: 83 115 101
Width: 1097
Flags: W
HStem: -24 253<289.388 620.731> 803 256<508.451 816.712>
VStem: 629 417<242.272 438>
LayerCount: 2
Fore
SplineSet
553 -24 m 0
 396 -24 188 16 86 71 c 1
 129 337 l 1
 185 337 l 1
 243 289 347 229 500 229 c 0
 547 229 629 236 629 283 c 0
 629 351 513 354 374 388 c 1
 142 443 85 512 85 703 c 0
 85 904 286 1059 599 1059 c 4
 753 1059 878 1031 989 977 c 1
 943 706 l 1
 899 706 l 1
 828 757 759 803 641 803 c 0
 547 803 493 768 493 734 c 0
 493 702 492 693 664 655 c 1
 944 591 1046 537 1046 339 c 0
 1046 130 889 -24 553 -24 c 0
EndSplineSet
EndChar

StartChar: t
Encoding: 84 116 102
Width: 828
Flags: HW
LayerCount: 2
Fore
SplineSet
515 -13 m 0
 266 -13 158 89 158 328 c 2
 158 808 l 1
 35 808 l 1
 35 1038 l 1
 158 1038 l 1
 158 1295 l 1
 546 1365 l 1
 546 1038 l 1
 766 1038 l 1
 766 808 l 1
 546 808 l 1
 546 376 l 2
 546 276.619 610.679 250.677 688.967 250.677 c 0
 713.818 250.677 740.04 253.291 766 257 c 1
 766 5 l 1
 701 -8 625 -13 515 -13 c 0
EndSplineSet
EndChar

StartChar: u
Encoding: 85 117 103
Width: 1253
Flags: HW
LayerCount: 2
Fore
SplineSet
441 -24 m 4
 273 -24 99 93 99 339 c 6
 99 1038 l 5
 502 1038 l 5
 502 515 l 6
 502 343 523 263 641 263 c 4
 676 263 746 298 746 357 c 6
 746 1038 l 5
 1133 1038 l 5
 1133 0 l 5
 746 0 l 5
 746 171 l 5
 683 28 556 -24 441 -24 c 4
EndSplineSet
EndChar

StartChar: v
Encoding: 86 118 104
Width: 1067
Flags: W
HStem: 0 21G<321.179 740.917> 1018 20G<-26 383.141 700.608 1093>
LayerCount: 2
Fore
SplineSet
328 0 m 1
 -26 1038 l 1
 378 1038 l 1
 506 540 l 5
 537 398 l 5
 540 398 l 5
 572 541 l 4
 706 1038 l 1
 1093 1038 l 1
 734 0 l 1
 328 0 l 1
EndSplineSet
EndChar

StartChar: w
Encoding: 87 119 105
Width: 1733
Flags: HW
LayerCount: 2
Fore
SplineSet
310 0 m 1
 -8 1038 l 1
 398 1038 l 1
 508 459 l 1
 522 384 l 1
 524 384 l 1
 547 462 l 2
 722 1038 l 1
 1032 1038 l 1
 1172 515 l 0
 1205 390 l 1
 1226 501 l 1
 1334 1038 l 1
 1740 1038 l 1
 1422 0 l 1
 1022 0 l 1
 866 650 l 1
 864 650 l 1
 704 0 l 1
 310 0 l 1
EndSplineSet
EndChar

StartChar: x
Encoding: 88 120 106
Width: 1127
Flags: W
HStem: 0 21G<-26 411.034 711.73 1154> 1018 20G<-12 421.014 707.014 1140>
LayerCount: 2
Fore
SplineSet
-26 0 m 1
 330 525 l 1
 -12 1038 l 1
 410 1038 l 1
 486 900 l 1
 562 756 l 1
 640 896 l 1
 718 1038 l 1
 1140 1038 l 1
 800 533 l 1
 1154 0 l 1
 722 0 l 1
 646 148 l 1
 564 300 l 1
 480 145 l 1
 400 0 l 1
 -26 0 l 1
EndSplineSet
EndChar

StartChar: y
Encoding: 89 121 107
Width: 1129
Flags: HW
LayerCount: 2
Fore
SplineSet
195 -393 m 1
 260 -260 319 -121 379 55 c 1
 9 1038 l 1
 423 1038 l 1
 594 479 l 1
 744 1038 l 1
 1148 1038 l 1
 748 -104 l 1
 699 -238 612 -393 611 -393 c 2
 195 -393 l 1
EndSplineSet
EndChar

StartChar: z
Encoding: 90 122 108
Width: 1001
Flags: W
HStem: 0 286<536 924> 761 277<90 467>
LayerCount: 2
Fore
SplineSet
62 0 m 1
 62 240 l 1
 467 761 l 1
 90 761 l 1
 90 1038 l 1
 919 1038 l 1
 919 795 l 1
 536 286 l 1
 924 286 l 1
 924 0 l 1
 62 0 l 1
EndSplineSet
EndChar

StartChar: braceleft
Encoding: 91 123 109
Width: 1163
Flags: HW
LayerCount: 2
Fore
SplineSet
864 -361 m 2
 565 -361 354 -301 354 20 c 2
 354 162 l 2
 354 388 262 475 7 475 c 1
 7 709 l 1
 260 709 354 784 354 1020 c 2
 354 1208 l 2
 354 1504 594 1546 881 1546 c 2
 1059 1546 l 1
 1059 1320 l 1
 1025 1320 l 2
 845 1320 727 1300 727 1090 c 2
 727 1028 l 2
 727 773 630 662 450 604 c 1
 450 580 l 1
 597 534 727 431 727 211 c 2
 727 128 l 2
 727 -118 826 -135 1014 -135 c 1
 1059 -134 l 1
 1059 -361 l 1
 864 -361 l 2
EndSplineSet
EndChar

StartChar: bar
Encoding: 92 124 110
Width: 1557
Flags: HW
LayerCount: 2
Fore
SplineSet
629 -447 m 1
 629 1481 l 1
 931 1481 l 1
 931 -447 l 1
 629 -447 l 1
EndSplineSet
EndChar

StartChar: braceright
Encoding: 93 125 111
Width: 1163
Flags: HW
LayerCount: 2
Fore
SplineSet
4 -364 m 1
 4 -137 l 1
 38 -137 l 2
 217 -137 335 -114 335 95 c 2
 335 158 l 2
 335 412 435 522 615 580 c 1
 615 604 l 1
 468 650 335 751 335 971 c 2
 335 1053 l 2
 335 1300 237 1318 49 1318 c 2
 4 1318 l 1
 4 1545 l 1
 4 1545 171 1546 199 1546 c 0
 498 1546 708 1481 708 1160 c 2
 708 1020 l 2
 708 794 802 706 1056 706 c 1
 1056 475 l 1
 803 475 708 397 708 162 c 2
 708 -25 l 2
 708 -321 469 -364 183 -364 c 2
 4 -364 l 1
EndSplineSet
EndChar

StartChar: asciitilde
Encoding: 94 126 112
Width: 1574
Flags: HW
LayerCount: 2
Fore
SplineSet
1082 310 m 0
 798 310 588 558 500 558 c 0
 426 558 363 462 375 308 c 1
 160 352 l 1
 175 684 307 848 522 848 c 0
 727 848 943 596 1080 596 c 0
 1216 596 1219 779 1208 850 c 1
 1425 803 l 1
 1410 478 1311 310 1082 310 c 0
EndSplineSet
EndChar

StartChar: dagger
Encoding: 392 8224 145
Width: 1222
Flags: HW
LayerCount: 2
Fore
SplineSet
481 -48 m 1
 481 824 l 1
 141 824 l 1
 141 1031 l 1
 484 1031 l 1
 484 1442 l 1
 740 1442 l 1
 740 1029 l 1
 1083 1029 l 1
 1083 820 l 1
 740 820 l 1
 740 -48 l 1
 481 -48 l 1
EndSplineSet
EndChar

StartChar: degree
Encoding: 111 176 146
Width: 1025
Flags: HW
LayerCount: 2
Fore
SplineSet
515 766 m 0
 332 766 188 905 188 1078 c 0
 188 1252 333 1387 515 1387 c 0
 697 1387 843 1252 843 1078 c 0
 843 904 697 766 515 766 c 0
515 874 m 0
 632 874 724 966 724 1078 c 0
 724 1188 631 1282 515 1282 c 0
 398 1282 306 1188 306 1078 c 0
 306 963 400 874 515 874 c 0
EndSplineSet
EndChar

StartChar: cent
Encoding: 97 162 147
Width: 1227
Flags: HW
LayerCount: 2
Fore
SplineSet
812 -293 m 1
 706 -293 l 1
 706 -25 l 1
 407 -18 110 147 110 518 c 0
 110 915 432 1056 706 1061 c 1
 706 1316 l 1
 812 1316 l 1
 812 1055 l 1
 911 1043 1016 1011 1119 954 c 1
 1061 697 l 1
 1009 739 893 777 812 784 c 1
 812 255 l 1
 917 260 1016 303 1065 335 c 1
 1124 83 l 1
 1038 36 927 -6 812 -20 c 1
 812 -293 l 1
706 266 m 1
 706 775 l 1
 606 749 513 673 513 517 c 0
 513 359 612 290 706 266 c 1
EndSplineSet
EndChar

StartChar: sterling
Encoding: 98 163 148
Width: 1259
Flags: HW
LayerCount: 2
Back
SplineSet
875 9 m 0
 719 9 502 10 338 10 c 0
 270 10 197 13 124 2 c 1
 124 313 l 1
 188 317 232 326 271 331 c 1
 290 377 279 394 279 425 c 0
 279 482 276 520 268 590 c 1
 135 590 l 1
 135 808 l 1
 259 808 l 1
 247 862 255 918 255 970 c 0
 255 1289 394 1505 752 1505 c 0
 901 1505 1053 1454 1110 1398 c 1
 1131 1024 l 1
 1062 1024 l 1
 1011 1072 911 1149 810 1149 c 0
 763 1149 663 1098 663 1005 c 0
 663 932 656 872 671 808 c 1
 1010 808 l 1
 1010 590 l 1
 689 590 l 1
 690 579 689 585 689 575 c 0
 689 476 649 412 619 337 c 1
 706 335 803 334 893 334 c 0
 985 334 1059 332 1153 350 c 1
 1201 33 l 1
 1095 2 980 9 875 9 c 0
EndSplineSet
Fore
SplineSet
124 -15 m 1
 124 296 l 1
 188 300 245 309 284 314 c 1
 295 340 298 376 298 413 c 0
 298 478 287 564 281 590 c 1
 135 590 l 1
 135 808 l 1
 259 808 l 1
 245 870 238 930 238 987 c 0
 238 1290 430 1505 752 1505 c 0
 901 1505 1073 1451 1130 1395 c 1
 1131 1064 l 1
 1062 1064 l 1
 998 1124 919 1162 847 1162 c 0
 743 1162 655 1087 655 933 c 0
 655 896 660 855 671 808 c 1
 1010 808 l 1
 1010 590 l 1
 689 590 l 1
 690 575 691 560 691 545 c 0
 691 467 651 372 599 314 c 1
 699 312 804 300 908 300 c 0
 991 300 1074 308 1153 333 c 1
 1201 16 l 1
 1128 -5 1050 -9 975 -9 c 0
 803 -9 608 12 422 12 c 0
 317 12 216 5 124 -15 c 1
EndSplineSet
EndChar

StartChar: section
Encoding: 102 167 149
Width: 1198
Flags: HW
LayerCount: 2
Back
SplineSet
732 590 m 1
 732 592.131 758.225 600.522 758.225 656.788 c 0
 758.225 737.605 454.808 727.881 434 733 c 1
 430.215 735.523 409.487 699.724 409.487 671.106 c 0
 409.487 662.301 412.032 653.665 419 646 c 1
 441.8 636.12 569.902 604.736 732 590 c 1
526 -99 m 0
 369 -99 224 -60 122 -5 c 1
 171 307 l 1
 209 265 328 155 537 155 c 0
 583 155 662 163 662 210 c 0
 662 294 453.76 285.354 434 289 c 0
 220.76 328.354 121 439 121 630 c 0
 121 703 146 773 197 836 c 1
 141 893 121 972 121 1071 c 0
 121 1271 338 1429 651 1429 c 0
 805 1429 935 1395 1024 1351 c 1
 974 1045 l 1
 892 1104 817 1173 676 1173 c 0
 582 1173 528 1137 528 1103 c 0
 528 1070 537.399 1060.06 711 1037 c 0
 951.399 1005.06 1082 906 1082 708 c 0
 1082 625 1049 552 988 491 c 1
 1049 438 1082 362 1082 265 c 0
 1082 55 863 -99 526 -99 c 0
EndSplineSet
Fore
SplineSet
787 564 m 1
 787 566 811 598 811 654 c 0
 811 709 582 727 404 765 c 1
 383 750 372 707 372 681 c 0
 372 666 380 652 399 646 c 0
 479 620 600 609 787 564 c 1
676 1173 m 0
 575 1173 506 1154 506 1102 c 0
 506 963 1082 1089 1082 721 c 0
 1082 638 1039 532 978 471 c 1
 1039 418 1082 362 1082 265 c 0
 1082 55 863 -99 526 -99 c 0
 369 -99 224 -60 122 -5 c 1
 161 237 l 1
 230 204 328 155 537 155 c 0
 587 156 663 163 663 222 c 0
 663 387 121 254 121 630 c 0
 121 703 146 786 197 849 c 1
 141 906 121 985 121 1084 c 0
 121 1284 338 1429 651 1429 c 0
 805 1429 935 1395 1024 1351 c 1
 974 1105 l 1
 922 1136 817 1173 676 1173 c 0
EndSplineSet
EndChar

StartChar: bullet
Encoding: 366 8226 150
Width: 1337
Flags: HW
LayerCount: 2
Fore
SplineSet
670 200 m 0
 413 200 187 412 187 658 c 0
 187 905 414 1112 670 1112 c 0
 930 1112 1154 905 1154 658 c 0
 1154 411 928 200 670 200 c 0
EndSplineSet
EndChar

StartChar: paragraph
Encoding: 115 182 151
Width: 1319
Flags: HW
LayerCount: 2
Fore
SplineSet
589 -278 m 1
 589 626 l 1
 213 635 49 809 49 1055 c 0
 49 1295 231 1481 603 1481 c 2
 1141 1481 l 1
 1141 -278 l 1
 928 -278 l 1
 928 1291 l 1
 815 1291 l 1
 815 -278 l 1
 589 -278 l 1
EndSplineSet
EndChar

StartChar: germandbls
Encoding: 155 223 152
Width: 1286
Flags: HW
LayerCount: 2
Fore
SplineSet
118 0 m 1
 118 1029 l 2
 118 1334 289 1505 627 1505 c 0
 937 1505 1134 1363 1134 1163 c 0
 1134 1007 1007 897 871 875 c 1
 871 857 l 1
 1146 808 1263 631 1263 467 c 0
 1263 152 1054 -5 703 -5 c 0
 686 -5 649 -1 606 0 c 1
 606 294 l 1
 630 294 l 2
 779 294 870 342 870 488 c 0
 870 618 762 675 603 675 c 1
 603 990 l 1
 743 990 803 1055 803 1118 c 0
 803 1178 750 1236 660 1236 c 0
 511 1236 507 1139 507 1068 c 2
 507 0 l 1
 118 0 l 1
EndSplineSet
EndChar

StartChar: registered
Encoding: 109 174 153
Width: 1898
Flags: HW
LayerCount: 2
Fore
SplineSet
952 -111 m 0
 478 -111 86 207 86 702 c 0
 86 1172 459 1515 952 1515 c 0
 1431 1515 1815 1176 1815 702 c 0
 1815 232 1444 -111 952 -111 c 0
952 79 m 0
 1354 79 1608 348 1608 708 c 0
 1608 1070 1335 1329 952 1329 c 0
 557 1329 307 1052 307 702 c 0
 307 337 573 79 952 79 c 0
811 776 m 1
 972 776 l 2
 1100 776 1137 817 1137 915 c 0
 1137 995 1063 1037 954 1037 c 2
 811 1037 l 1
 811 776 l 1
634 254 m 1
 634 1172 l 1
 939 1172 l 2
 1112 1172 1308 1146 1308 907 c 0
 1308 774 1282 716 1143 660 c 1
 1370 298 l 1
 1370 254 l 1
 1183 254 l 1
 976 632 l 1
 811 632 l 1
 811 254 l 1
 634 254 l 1
EndSplineSet
EndChar

StartChar: copyright
Encoding: 104 169 154
Width: 1898
Flags: HW
LayerCount: 2
Fore
SplineSet
952 -111 m 0
 478 -111 86 207 86 702 c 0
 86 1172 459 1515 952 1515 c 0
 1431 1515 1815 1176 1815 702 c 0
 1815 232 1444 -111 952 -111 c 0
952 79 m 0
 1354 79 1608 348 1608 708 c 0
 1608 1070 1335 1329 952 1329 c 0
 557 1329 307 1052 307 702 c 0
 307 337 573 79 952 79 c 0
986 240 m 0
 721 240 516 439 516 709 c 0
 516 998 724 1186 997 1186 c 0
 1155 1186 1255 1125 1334 1072 c 1
 1271 927 l 1
 1247 951 1144 1024 1020 1024 c 0
 818 1024 725 867 725 709 c 0
 725 560 795 407 993 407 c 0
 1140 407 1225 476 1225 476 c 1
 1271 325 l 1
 1256 303 1110 240 986 240 c 0
1271 927 m 1
 1278 920 1278 917 1269 922 c 1
 1271 927 l 1
EndSplineSet
EndChar

StartChar: trademark
Encoding: 371 8482 155
Width: 1829
Flags: HW
LayerCount: 2
Fore
SplineSet
267 762 m 5
 267 1304 l 5
 54 1304 l 5
 54 1481 l 5
 693 1481 l 5
 693 1304 l 5
 480 1304 l 5
 480 762 l 5
 267 762 l 5
805 762 m 5
 805 1481 l 5
 1128 1481 l 5
 1275 1069 l 5
 1428 1481 l 5
 1735 1481 l 5
 1735 762 l 5
 1540 762 l 5
 1540 1293 l 5
 1524 1293 l 5
 1337 852 l 5
 1208 852 l 5
 1026 1298 l 5
 1001 1298 l 5
 1001 762 l 5
 805 762 l 5
EndSplineSet
EndChar

StartChar: acute
Encoding: 114 180 156
Width: 1021
Flags: HW
LayerCount: 2
Fore
SplineSet
291 1186 m 1
 504 1534 l 1
 869 1534 l 1
 568 1186 l 1
 291 1186 l 1
EndSplineSet
EndChar

StartChar: dieresis
Encoding: 103 168 157
Width: 903
Flags: HW
LayerCount: 2
Fore
SplineSet
527 1160 m 1
 527 1448 l 1
 793 1448 l 1
 793 1160 l 1
 527 1160 l 1
95 1160 m 1
 95 1448 l 1
 363 1448 l 1
 363 1160 l 1
 95 1160 l 1
EndSplineSet
EndChar

StartChar: notequal
Encoding: 399 8800 158
Width: 1372
Flags: HW
LayerCount: 2
Fore
SplineSet
328 52 m 1
 445 273 l 1
 234 273 l 1
 234 438 l 1
 527 438 l 1
 645 666 l 1
 234 666 l 1
 234 833 l 1
 729 833 l 1
 852 1075 l 1
 1045 1063 l 1
 925 833 l 1
 1142 833 l 1
 1142 666 l 1
 842 666 l 1
 722 438 l 1
 1142 438 l 1
 1142 273 l 1
 641 273 l 1
 520 39 l 1
 328 52 l 1
EndSplineSet
EndChar

StartChar: AE
Encoding: 130 198 159
Width: 1941
Flags: HW
LayerCount: 2
Fore
SplineSet
579 617 m 1
 796 617 l 1
 796 1058 l 1
 722 1058 l 1
 579 617 l 1
-77 0 m 1
 425 1352 l 1
 1868 1352 l 1
 1868 1037 l 1
 1221 1037 l 1
 1221 877 l 1
 1785 877 l 1
 1785 569 l 1
 1221 569 l 1
 1221 317 l 1
 1865 317 l 1
 1865 0 l 1
 796 0 l 1
 796 310 l 1
 462 310 l 1
 361 0 l 1
 -77 0 l 1
EndSplineSet
EndChar

StartChar: Oslash
Encoding: 148 216 160
Width: 1492
Flags: HW
LayerCount: 2
Fore
SplineSet
751 319 m 0
 915 319 968 453 968 740 c 0
 968 816 966 876 967 926 c 1
 656 335 l 1
 687 321 718 319 751 319 c 0
550 495 m 1
 880 1113 l 1
 847 1144 805 1158 751 1158 c 0
 593 1158 529 1041 529 740 c 0
 529 636 536 557 550 495 c 1
750 -25 m 0
 645 -25 550 -12 462 12 c 1
 436 -38 l 1
 244 -38 l 1
 309 90 l 1
 143 217 56 440 56 740 c 0
 56 1240 294 1505 750 1505 c 0
 878 1505 986 1484 1081 1447 c 1
 1117 1516 l 1
 1315 1516 l 1
 1226 1355 l 1
 1368 1228 1439 1020 1439 740 c 0
 1439 243 1208 -25 750 -25 c 0
EndSplineSet
EndChar

StartChar: infinity
Encoding: 396 8734 161
Width: 1497
Flags: HW
LayerCount: 2
Fore
SplineSet
1083 372 m 0
 1185 372 1254 457 1254 554 c 0
 1254 662 1183 741 1081 741 c 0
 987 741 905 659 839 557 c 1
 922 430 994 372 1083 372 c 0
426 378 m 0
 520 378 597 449 668 557 c 1
 596 672 518 747 422 747 c 0
 319 747 249 664 249 559 c 0
 249 454 324 378 426 378 c 0
1100 205 m 0
 966 205 853 274 751 432 c 1
 656 290 549 211 406 211 c 0
 215 211 71 353 71 564 c 0
 71 759 218 911 408 911 c 0
 552 911 661 828 753 684 c 1
 844 816 954 907 1103 907 c 0
 1298 906 1437 765 1437 557 c 0
 1437 356 1284 205 1100 205 c 0
EndSplineSet
EndChar

StartChar: plusminus
Encoding: 112 177 162
Width: 1679
Flags: HW
LayerCount: 2
Fore
SplineSet
238 0 m 1
 238 178 l 1
 1217 178 l 1
 1217 0 l 1
 238 0 l 1
636 280 m 1
 636 619 l 1
 240 619 l 1
 240 793 l 1
 636 793 l 1
 636 1133 l 1
 819 1133 l 1
 819 793 l 1
 1220 793 l 1
 1220 619 l 1
 819 619 l 1
 819 280 l 1
 636 280 l 1
EndSplineSet
EndChar

StartChar: lessequal
Encoding: 397 8804 163
Width: 1723
Flags: HW
LayerCount: 2
Fore
SplineSet
331 0 m 1
 331 185 l 1
 1457 185 l 1
 1457 0 l 1
 331 0 l 1
1464 293 m 1
 323 631 l 1
 323 869 l 1
 1464 1198 l 1
 1464 921 l 1
 743 748 l 1
 1464 572 l 1
 1464 293 l 1
EndSplineSet
EndChar

StartChar: greaterequal
Encoding: 395 8805 164
Width: 1743
Flags: HW
LayerCount: 2
Fore
SplineSet
331 0 m 1
 331 185 l 1
 1478 185 l 1
 1478 0 l 1
 331 0 l 1
324 293 m 1
 324 572 l 1
 1057 749 l 1
 324 921 l 1
 324 1198 l 1
 1484 868 l 1
 1484 630 l 1
 324 293 l 1
EndSplineSet
EndChar

StartChar: yen
Encoding: 100 165 165
Width: 1606
Flags: HW
LayerCount: 2
Fore
SplineSet
582 0 m 1
 582 409 l 1
 241 409 l 1
 241 648 l 1
 579 648 l 1
 508 763 l 1
 241 763 l 1
 241 1009 l 1
 371 1009 l 1
 101 1481 l 1
 581 1481 l 1
 817 992 l 1
 1040 1481 l 1
 1502 1481 l 1
 1242 1009 l 1
 1398 1009 l 1
 1398 763 l 1
 1102 763 l 1
 1037 648 l 1
 1398 648 l 1
 1398 409 l 1
 1037 409 l 1
 1037 0 l 1
 582 0 l 1
EndSplineSet
EndChar

StartChar: product
Encoding: 372 8719 166
Width: 1562
Flags: HW
LayerCount: 2
Fore
SplineSet
189 0 m 1
 189 1481 l 1
 1392 1481 l 1
 1392 0 l 1
 1036 0 l 1
 1036 1211 l 1
 544 1211 l 1
 544 0 l 1
 189 0 l 1
EndSplineSet
EndChar

StartChar: integral
Encoding: 373 8747 167
Width: 1130
Flags: HW
LayerCount: 2
Fore
SplineSet
355 -380 m 0
 298 -380 147 -350 112 -337 c 1
 153 -157 l 1
 137 -150 217 -170 248 -170 c 0
 334 -170 390 -143 390 36 c 2
 390 1041 l 2
 390 1311 556 1461 782 1461 c 0
 839 1461 986 1440 1019 1430 c 1
 982 1243 l 1
 997 1236 915 1254 884 1254 c 0
 760 1254 759 1113 759 1019 c 2
 759 53 l 2
 759 -226 612 -380 355 -380 c 0
EndSplineSet
EndChar

StartChar: ordfeminine
Encoding: 105 170 168
Width: 916
Flags: HW
LayerCount: 2
Fore
SplineSet
424 819 m 0
 453 819 494 825 513 860 c 1
 513 961 l 1
 447 950 325 970 325 885 c 0
 325 826 386 819 424 819 c 0
265 632 m 0
 128 632 5 698 5 858 c 0
 5 1122 273 1100 513 1143 c 1
 513 1201 435 1217 307 1217 c 0
 228 1217 144 1183 123 1168 c 1
 87 1358 l 1
 124 1390 251 1413 374 1413 c 0
 649 1413 832 1366 832 1176 c 2
 832 646 l 1
 513 646 l 1
 513 714 l 1
 511 714 l 1
 453 659 355 632 265 632 c 0
123 1168 m 1
 124 1161 l 1
 116 1161 116 1163 123 1168 c 1
EndSplineSet
EndChar

StartChar: ordmasculine
Encoding: 118 186 169
Width: 946
Flags: HW
LayerCount: 2
Fore
SplineSet
490 641 m 0
 221 641 63 782 63 1037 c 0
 63 1296 227 1430 492 1430 c 0
 759 1430 922 1293 922 1034 c 0
 922 779 758 641 490 641 c 0
499 831 m 0
 584 831 620 897 620 1033 c 0
 620 1188 576 1235 492 1235 c 0
 428 1235 362 1219 362 1034 c 0
 362 879 410 831 499 831 c 0
EndSplineSet
EndChar

StartChar: ae
Encoding: 162 230 170
Width: 1772
Flags: HW
LayerCount: 2
Fore
SplineSet
1044 652 m 1
 1348 652 l 1
 1346 790 1283 819 1199 819 c 0
 1110 819 1031 774 1044 652 c 1
564 240 m 0
 751 240 675 400 666 426 c 1
 570 415 408 454 408 334 c 0
 408 259 446 240 564 240 c 0
463 -21 m 0
 137 -21 12 106 12 304 c 0
 12 548 266 630 545 651 c 1
 591 666 650 662 653 662 c 1
 654 731 618 798 424 798 c 0
 340 798 190 754 108 703 c 1
 51 963 l 1
 116 1011 328 1063 497 1063 c 0
 675 1063 806 1025 878 898 c 1
 947 1022 1111 1067 1237 1067 c 0
 1554 1067 1747 914 1747 610 c 2
 1747 420 l 1
 1047 420 l 1
 1063 277 1189 255 1323 255 c 0
 1406 255 1562 287 1624 377 c 1
 1671 375 l 1
 1726 86 l 1
 1639 29 1516 -28 1274 -28 c 0
 1033 -28 946 51 851 116 c 1
 780 65 614 -21 463 -21 c 0
EndSplineSet
EndChar

StartChar: oslash
Encoding: 180 248 171
Width: 1165
Flags: HW
LayerCount: 2
Fore
SplineSet
271 -182 m 1
 163 -182 l 1
 298 47 l 1
 146 136 80 300 80 517 c 0
 80 855 236 1059 629 1059 c 0
 723 1059 804 1046 872 1023 c 1
 983 1212 l 1
 1098 1212 l 1
 962 982 l 1
 1111 893 1178 732 1178 516 c 0
 1178 181 1015 -28 629 -28 c 0
 534 -28 453 -16 384 8 c 1
 271 -182 l 1
633 249 m 1
 721 249 794 303 794 516 c 0
 794 581 787 631 776 669 c 1
 538 269 l 1
 567 251 627 250 633 249 c 1
478 354 m 1
 718 761 l 1
 690 782 658 787 629 787 c 0
 555 787 459 771 459 515 c 0
 459 444 466 392 478 354 c 1
EndSplineSet
EndChar

StartChar: exclamdown
Encoding: 96 161 173
Width: 696
Flags: HW
LayerCount: 2
Fore
SplineSet
434 488 m 1
 524 -447 l 1
 100 -447 l 1
 180 488 l 1
 434 488 l 1
308 1063 m 0
 430 1063 535 958 535 836 c 0
 535 713 430 610 308 610 c 0
 183 610 79 713 79 836 c 0
 79 958 183 1063 308 1063 c 0
EndSplineSet
EndChar

StartChar: logicalnot
Encoding: 107 172 174
Width: 1569
Flags: HW
LayerCount: 2
Fore
SplineSet
1119 99 m 1
 1119 547 l 1
 187 547 l 1
 187 782 l 1
 1380 782 l 1
 1380 99 l 1
 1119 99 l 1
EndSplineSet
EndChar

StartChar: florin
Encoding: 394 402 175
Width: 1178
Flags: HW
LayerCount: 2
Fore
SplineSet
206 -200 m 0
 163 -200 59 -196 14 -189 c 1
 10 103 l 1
 40 111 102 86 183 86 c 0
 330 86 365 333 367 435 c 1
 367 434 366 433 366 432 c 1
 375 493 404 676 392 605 c 1
 277 605 l 1
 277 841 l 1
 425 841 l 1
 447 992 l 1
 507 1370 746 1387 961 1387 c 0
 1004 1387 1071 1386 1138 1377 c 1
 1143 1083 l 1
 1128 1078 1048 1095 981 1095 c 0
 843 1095 830 1004 828 982 c 1
 833 1008 810 817 815 841 c 1
 1011 841 l 1
 1012 605 l 1
 775 605 l 1
 707 167 l 2
 665 -100 439 -200 206 -200 c 0
366 432 m 1
 362 403 363 409 366 432 c 1
EndSplineSet
EndChar

StartChar: approxequal
Encoding: 391 8776 176
Width: 1384
Flags: HW
LayerCount: 2
Fore
SplineSet
360 597 m 1
 206 617 l 1
 231 791 336 903 499 903 c 0
 576 903 648 874 717 832 c 0
 785 791 841 765 885 767 c 0
 968 769 1014 822 1025 907 c 1
 1179 887 l 1
 1157 715 1054 597 895 597 c 0
 829 597 753 623 659 676 c 1
 593 712 545 738 506 738 c 0
 424 738 378 684 360 597 c 1
360 205 m 1
 206 225 l 1
 231 403 335 517 496 517 c 0
 574 517 647 486 717 445 c 0
 789 403 850 376 894 383 c 1
 971 393 1014 433 1025 519 c 1
 1179 498 l 1
 1157 326 1057 211 896 211 c 0
 832 211 753 236 659 289 c 0
 591 328 542 352 506 352 c 0
 424 352 378 294 360 205 c 1
EndSplineSet
EndChar

StartChar: guillemotleft
Encoding: 106 171 177
Width: 1102
Flags: HW
LayerCount: 2
Fore
SplineSet
970 136 m 1
 589 516 l 1
 589 684 l 1
 970 1057 l 1
 970 777 l 1
 787 599 l 1
 787 599 1010 390 970 423 c 1
 970 136 l 1
590 136 m 1
 211 516 l 1
 211 684 l 1
 590 1057 l 1
 590 777 l 1
 407 599 l 1
 407 599 630 390 590 423 c 1
 590 136 l 1
EndSplineSet
EndChar

StartChar: guillemotright
Encoding: 119 187 178
Width: 1102
Flags: HW
LayerCount: 2
Fore
SplineSet
586 136 m 1
 586 415 l 1
 771 594 l 1
 771 594 546 800 586 767 c 1
 586 1057 l 1
 967 674 l 1
 967 509 l 1
 586 136 l 1
207 136 m 1
 207 415 l 1
 392 594 l 1
 392 594 167 800 207 767 c 1
 207 1057 l 1
 587 674 l 1
 587 509 l 1
 207 136 l 1
EndSplineSet
EndChar

StartChar: ellipsis
Encoding: 393 8230 179
Width: 2328
Flags: HW
LayerCount: 2
Fore
SplineSet
398 -29 m 0
 276 -29 172 76 172 198 c 0
 172 321 276 424 398 424 c 0
 523 424 627 321 627 198 c 0
 627 76 523 -29 398 -29 c 0
1174 -29 m 0
 1052 -29 948 76 948 198 c 0
 948 321 1052 424 1174 424 c 0
 1299 424 1403 321 1403 198 c 0
 1403 76 1299 -29 1174 -29 c 0
1950 -29 m 0
 1828 -29 1724 76 1724 198 c 0
 1724 321 1828 424 1950 424 c 0
 2075 424 2179 321 2179 198 c 0
 2179 76 2075 -29 1950 -29 c 0
EndSplineSet
EndChar

StartChar: OE
Encoding: 258 338 183
Width: 1998
Flags: HW
LayerCount: 2
Fore
SplineSet
766 342 m 1
 939 342 l 1
 939 1139 l 1
 773 1139 l 2
 588 1139 502 1076 502 727 c 0
 502 408 588 350 766 342 c 1
679 0 m 2
 436 0 62 109 62 729 c 0
 62 1275 337 1481 720 1481 c 2
 1976 1481 l 1
 1976 1139 l 1
 1395 1139 l 1
 1395 940 l 1
 1894 940 l 1
 1894 606 l 1
 1395 606 l 1
 1395 342 l 1
 1976 342 l 1
 1976 0 l 1
 679 0 l 2
EndSplineSet
EndChar

StartChar: oe
Encoding: 259 339 184
Width: 1932
Flags: HW
LayerCount: 2
Back
SplineSet
1143.9 659 m 5
 1494.9 659 l 5
 1489.9 795 1411.9 819 1306.9 819 c 4
 1219.9 819 1149.9 762 1143.9 659 c 5
1386.9 -25 m 4
 993.9 -25 756.9 131 756.9 515 c 4
 756.9 878 984.9 1061 1328.9 1061 c 4
 1630.9 1061 1829.9 901 1829.9 617 c 6
 1829.9 430 l 5
 1152.9 430 l 5
 1167.9 273 1282.9 255 1420.9 255 c 4
 1523.9 255 1642.9 298 1721.9 337 c 5
 1763.9 337 l 5
 1809.9 85 l 5
 1710.9 19 1592.9 -25 1386.9 -25 c 4
EndSplineSet
Fore
SplineSet
1173 649 m 1
 1524 649 l 1
 1519 781 1444 819 1349 819 c 0
 1244 819 1173 750 1173 649 c 1
622 250 m 4
 740 250 766 350 766 518 c 4
 766 668 740 789 621 789 c 4
 520 789 475 729 475 517 c 4
 475 334 496 250 622 250 c 4
607 -28 m 0
 219 -28 80 209 80 519 c 0
 80 823 190 1058 615 1058 c 0
 746 1058 902 1014 988 908 c 1
 1068 1006 1239 1061 1365 1061 c 0
 1642 1061 1859 917 1859 610 c 2
 1859 443 l 1
 1176 443 l 1
 1195 277 1320 240 1453 240 c 0
 1530 240 1700 286 1746 322 c 1
 1793 322 l 1
 1838 86 l 1
 1757 30 1635 -25 1415 -25 c 0
 1241 -25 1058 32 975 172 c 1
 924 94 835 -28 607 -28 c 0
EndSplineSet
EndChar

StartChar: endash
Encoding: 357 8211 185
Width: 1054
Flags: HW
LayerCount: 2
Fore
SplineSet
-114 472 m 5
 -114 718 l 5
 1171 718 l 5
 1171 472 l 5
 -114 472 l 5
EndSplineSet
EndChar

StartChar: emdash
Encoding: 358 8212 186
Width: 1704
Flags: HW
LayerCount: 2
Fore
SplineSet
-114 472 m 1
 -114 718 l 1
 1822 718 l 1
 1822 472 l 1
 -114 472 l 1
EndSplineSet
EndChar

StartChar: quotedblleft
Encoding: 362 8220 187
Width: 970
Flags: HW
LayerCount: 2
Fore
SplineSet
626 925 m 1
 433 1481 l 1
 795 1481 l 1
 902 925 l 1
 626 925 l 1
209 925 m 1
 17 1481 l 1
 379 1481 l 1
 487 925 l 1
 209 925 l 1
EndSplineSet
EndChar

StartChar: quotedblright
Encoding: 363 8221 188
Width: 968
Flags: HW
LayerCount: 2
Fore
SplineSet
552 990 m 1
 653 1481 l 1
 1010 1481 l 1
 802 990 l 1
 552 990 l 1
122 990 m 1
 222 1481 l 1
 580 1481 l 1
 373 990 l 1
 122 990 l 1
EndSplineSet
EndChar

StartChar: quoteleft
Encoding: 359 8216 189
Width: 603
Flags: HW
LayerCount: 2
Fore
SplineSet
209 925 m 1
 17 1481 l 1
 379 1481 l 1
 487 925 l 1
 209 925 l 1
EndSplineSet
EndChar

StartChar: quoteright
Encoding: 360 8217 190
Width: 603
Flags: HW
LayerCount: 2
Fore
SplineSet
122 990 m 1
 222 1481 l 1
 580 1481 l 1
 373 990 l 1
 122 990 l 1
EndSplineSet
EndChar

StartChar: divide
Encoding: 179 247 191
Width: 1568
Flags: HW
LayerCount: 2
Fore
SplineSet
785 830 m 0
 672 830 584 920 584 1032 c 0
 584 1145 672 1236 785 1236 c 0
 897 1236 987 1145 987 1032 c 0
 987 920 897 830 785 830 c 0
187 497 m 1
 187 735 l 1
 1385 735 l 1
 1385 497 l 1
 187 497 l 1
785 0 m 0
 672 0 584 90 584 203 c 0
 584 315 672 405 785 405 c 0
 897 405 987 315 987 203 c 0
 987 90 897 0 785 0 c 0
EndSplineSet
EndChar

StartChar: lozenge
Encoding: 398 9674 192
Width: 1173
Flags: HW
LayerCount: 2
Fore
SplineSet
586 177 m 1
 837 671 l 1
 589 1168 l 1
 337 674 l 1
 586 177 l 1
446 -30 m 1
 75 672 l 1
 450 1378 l 1
 722 1378 l 1
 1098 672 l 1
 718 -30 l 1
 446 -30 l 1
EndSplineSet
EndChar

StartChar: fraction
Encoding: 369 8260 195
Width: 1358
Flags: HW
LayerCount: 2
Fore
SplineSet
230 0 m 1
 787 1482 l 1
 1083 1482 l 1
 522 0 l 1
 230 0 l 1
EndSplineSet
EndChar

StartChar: currency
Encoding: 99 164 196
Width: 897
Flags: HW
LayerCount: 2
Fore
SplineSet
455 421 m 0
 609 421 708 524 708 689 c 0
 708 854 609 957 455 957 c 0
 302 957 197 854 197 689 c 0
 197 524 302 421 455 421 c 0
120 253 m 1
 16 354 l 1
 110 451 l 1
 67 501 34 595 34 689 c 0
 34 783 66 876 110 932 c 1
 16 1026 l 1
 120 1125 l 1
 213 1032 l 1
 265 1075 360 1107 455 1107 c 0
 549 1107 634 1077 691 1034 c 1
 786 1125 l 1
 888 1026 l 1
 793 932 l 1
 836 876 873 783 873 689 c 0
 873 595 836 501 793 449 c 1
 888 354 l 1
 786 253 l 1
 691 349 l 1
 634 305 549 274 455 274 c 0
 360 274 265 307 213 349 c 1
 120 253 l 1
EndSplineSet
EndChar

StartChar: guilsinglleft
Encoding: 367 8249 197
Width: 881
Flags: HW
LayerCount: 2
Fore
SplineSet
734 136 m 1
 734 136 332 454 229 530 c 1
 229 655 l 1
 331 740 734 1057 734 1057 c 1
 734 777 l 1
 505 597 l 1
 582 538 658 483 734 423 c 1
 734 136 l 1
EndSplineSet
EndChar

StartChar: guilsinglright
Encoding: 368 8250 198
Width: 881
Flags: HW
LayerCount: 2
Fore
SplineSet
223 136 m 1
 223 415 l 1
 448 598 l 1
 371 657 299 707 223 767 c 1
 223 1057 l 1
 223 1057 624 736 727 660 c 1
 727 537 l 1
 625 451 223 136 223 136 c 1
EndSplineSet
EndChar

StartChar: daggerdbl
Encoding: 365 8225 199
Width: 1219
Flags: HW
LayerCount: 2
Fore
SplineSet
480 -48 m 1
 480 337 l 1
 139 337 l 1
 139 545 l 1
 486 545 l 1
 486 863 l 1
 139 863 l 1
 139 1072 l 1
 482 1072 l 1
 482 1442 l 1
 738 1442 l 1
 738 1069 l 1
 1081 1069 l 1
 1081 860 l 1
 736 860 l 1
 736 542 l 1
 1081 542 l 1
 1081 335 l 1
 738 335 l 1
 738 -48 l 1
 480 -48 l 1
EndSplineSet
EndChar

StartChar: periodcentered
Encoding: 116 183 200
Width: 776
Flags: HW
LayerCount: 2
Fore
SplineSet
398 389 m 0
 276 389 172 494 172 616 c 0
 172 740 276 842 398 842 c 0
 523 842 627 740 627 616 c 0
 627 494 523 389 398 389 c 0
EndSplineSet
EndChar

StartChar: quotesinglbase
Encoding: 361 8218 201
Width: 585
Flags: HW
LayerCount: 2
Fore
SplineSet
120 -245 m 1
 220 243 l 1
 559 243 l 1
 514 114 393 -245 393 -245 c 1
 120 -245 l 1
EndSplineSet
EndChar

StartChar: quotedblbase
Encoding: 364 8222 202
Width: 925
Flags: HW
LayerCount: 2
Fore
SplineSet
466 -245 m 1
 566 243 l 1
 894 243 l 1
 644 -245 l 1
 466 -245 l 1
94 -245 m 1
 195 243 l 1
 522 243 l 1
 271 -245 l 1
 94 -245 l 1
EndSplineSet
EndChar

StartChar: perthousand
Encoding: 400 8240 203
Width: 2748
Flags: HW
LayerCount: 2
Fore
SplineSet
2255 -3 m 0
 2049 -3 1932 101 1932 328 c 0
 1932 590 2036 709 2255 709 c 0
 2460 709 2577 601 2577 379 c 0
 2577 117 2477 -3 2255 -3 c 0
2255 167 m 0
 2335 167 2351 223 2353 362 c 1
 2353 473 2342 542 2255 542 c 0
 2164 542 2158 470 2158 348 c 0
 2158 242 2162 167 2255 167 c 0
1479 -3 m 0
 1273 -3 1155 101 1155 328 c 0
 1155 590 1260 709 1479 709 c 0
 1684 709 1800 601 1800 379 c 0
 1800 117 1701 -3 1479 -3 c 0
1479 167 m 0
 1559 167 1577 223 1577 362 c 0
 1577 473 1566 542 1479 542 c 0
 1390 542 1380 470 1380 348 c 0
 1380 243 1386 167 1479 167 c 0
487 0 m 1
 1219 1399 l 1
 1465 1399 l 1
 731 0 l 1
 487 0 l 1
487 688 m 0
 281 688 161 795 161 1022 c 0
 161 1284 268 1402 487 1402 c 0
 692 1402 808 1297 808 1074 c 0
 808 812 707 688 487 688 c 0
487 859 m 0
 567 859 584 915 586 1054 c 1
 586 1165 573 1237 487 1237 c 0
 396 1237 389 1162 389 1040 c 0
 389 934 394 859 487 859 c 0
EndSplineSet
EndChar

StartChar: dotlessi
Encoding: 231 305 219
Width: 692
Flags: HW
LayerCount: 2
Fore
SplineSet
153 0 m 1
 153 1038 l 1
 541 1038 l 1
 541 0 l 1
 153 0 l 1
EndSplineSet
EndChar

StartChar: circumflex
Encoding: 338 710 220
Width: 824
Flags: HW
LayerCount: 2
Fore
SplineSet
-13 1175 m 1
 277 1520 l 1
 553 1520 l 1
 844 1175 l 1
 546 1175 l 1
 415 1339 l 1
 275 1175 l 1
 -13 1175 l 1
EndSplineSet
EndChar

StartChar: tilde
Encoding: 344 732 221
Width: 1304
Flags: HW
LayerCount: 2
Fore
SplineSet
906 186 m 0
 795 186 536 283 465 283 c 0
 425 283 393 281 393 186 c 1
 393 186 177 182 177 186 c 0
 177 436 260 555 407 555 c 0
 520 555 806 446 860 446 c 0
 904 446 908 471 908 555 c 1
 1129 555 l 1
 1124 269 1079 186 906 186 c 0
EndSplineSet
EndChar

StartChar: macron
Encoding: 110 175 222
Width: 318
Flags: HW
LayerCount: 2
Fore
SplineSet
-123 1111 m 1
 -123 1343 l 1
 439 1343 l 1
 439 1111 l 1
 -123 1111 l 1
EndSplineSet
EndChar

StartChar: breve
Encoding: 340 728 223
Width: 833
Flags: HW
LayerCount: 2
Fore
SplineSet
424 1153 m 0
 196 1153 77 1269 74 1485 c 1
 254 1485 l 1
 264 1391 300 1320 424 1320 c 0
 535 1320 588 1388 594 1485 c 1
 774 1485 l 1
 771 1269 637 1153 424 1153 c 0
EndSplineSet
EndChar

StartChar: dotaccent
Encoding: 341 729 224
Width: 152
Flags: HW
LayerCount: 2
Fore
SplineSet
74 142 m 0
 -75 142 -148 228 -148 335 c 0
 -148 440 -74 529 74 529 c 0
 223 529 297 439 297 333 c 0
 297 226 222 142 74 142 c 0
EndSplineSet
EndChar

StartChar: ring
Encoding: 342 730 225
Width: 565
Flags: HW
LayerCount: 2
Fore
SplineSet
277 118 m 0
 77 118 -82 269 -82 456 c 0
 -82 645 78 791 277 791 c 0
 478 791 638 644 638 456 c 0
 638 268 478 118 277 118 c 0
277 235 m 0
 406 235 508 335 508 456 c 0
 508 575 405 677 277 677 c 0
 149 677 48 575 48 456 c 0
 48 332 151 235 277 235 c 0
EndSplineSet
EndChar

StartChar: cedilla
Encoding: 117 184 226
Width: 1110
Flags: HW
LayerCount: 2
Fore
SplineSet
488 -523 m 0
 436 -523 347 -504 295 -480 c 1
 318 -342 l 1
 318 -342 376 -343 378 -342 c 1
 393 -370 448 -386 490 -386 c 0
 577 -386 627 -338 627 -280 c 0
 627 -230 575 -192 512 -192 c 0
 499 -192 488 -194 471 -197 c 1
 456 -194 436 -188 421 -185 c 1
 489 2 l 1
 593 2 l 1
 553 -91 l 1
 749 -89 807 -198 807 -280 c 0
 807 -409 686 -523 488 -523 c 0
EndSplineSet
EndChar

StartChar: hungarumlaut
Encoding: 345 733 227
Width: 900
Flags: HW
LayerCount: 2
Fore
SplineSet
617 1186 m 1
 818 1534 l 1
 1197 1534 l 1
 893 1186 l 1
 617 1186 l 1
101 1186 m 1
 310 1534 l 1
 696 1534 l 1
 379 1186 l 1
 101 1186 l 1
EndSplineSet
EndChar

StartChar: ogonek
Encoding: 343 731 228
Width: 1003
Flags: HW
LayerCount: 2
Fore
SplineSet
574 -410 m 1
 453 -410 369 -338 353 -235 c 1
 343 -133 387 -54 435 5 c 1
 583 5 l 1
 547 -40 524 -93 520 -141 c 1
 517 -224 561 -274 638 -274 c 0
 694 -274 736 -257 757 -247 c 1
 767 -378 l 1
 703 -401 636 -415 574 -410 c 1
EndSplineSet
EndChar

StartChar: caron
Encoding: 339 711 229
Width: 765
Flags: HW
LayerCount: 2
Fore
SplineSet
269 1178 m 1
 -44 1520 l 1
 217 1520 l 1
 385 1336 l 1
 550 1520 l 1
 808 1520 l 1
 495 1178 l 1
 269 1178 l 1
EndSplineSet
EndChar

StartChar: Dcroat
Encoding: 378 272 297
Width: 1551
Flags: HW
LayerCount: 2
Fore
SplineSet
146 0 m 1
 146 1481 l 1
 638 1481 l 2
 1180 1481 1502 1306 1502 737 c 0
 1502 164 1160 0 628 0 c 2
 146 0 l 1
607 326 m 1
 669 326 l 2
 916 326 1027 427 1027 735 c 0
 1027 1021 938 1155 757 1155 c 2
 607 1155 l 1
 607 326 l 1
676 1645 m 1
 363 1987 l 1
 624 1987 l 1
 792 1803 l 1
 957 1987 l 1
 1215 1987 l 1
 902 1645 l 1
 676 1645 l 1
EndSplineSet
EndChar

StartChar: Hbar
Encoding: 220 294 298
Width: 1615
Flags: HW
LayerCount: 2
Fore
SplineSet
146 0 m 1
 146 1481 l 1
 607 1481 l 1
 607 941 l 1
 1008 941 l 1
 1008 1481 l 1
 1469 1481 l 1
 1469 0 l 1
 1008 0 l 1
 1008 617 l 1
 607 617 l 1
 607 0 l 1
 146 0 l 1
374 1647 m 1
 664 1992 l 1
 940 1992 l 1
 1231 1647 l 1
 933 1647 l 1
 802 1811 l 1
 662 1647 l 1
 374 1647 l 1
EndSplineSet
EndChar

StartChar: dcroat
Encoding: 203 273 371
Width: 1309
Flags: HW
LayerCount: 2
Fore
SplineSet
496.7 1242.5 m 1
 496.7 1395.5 l 1
 1303 1395.5 l 1
 1303 1242.5 l 1
 496.7 1242.5 l 1
EndSplineSet
Refer: 86 100 N 1 0 0 1 0 0 2
EndChar

StartChar: hbar
Encoding: 221 295 372
Width: 1247
Flags: HW
LayerCount: 2
Fore
SplineSet
124 0 m 1
 124 1411 l 1
 512 1411 l 1
 512 877 l 1
 537 929 624 1059 798 1059 c 0
 1017 1059 1145 921 1145 675 c 2
 1145 0 l 1
 757 0 l 1
 757 506 l 2
 757 661 752 741 626 741 c 0
 565 741 512 677 512 571 c 2
 512 0 l 1
 124 0 l 1
198 1552 m 1
 488 1897 l 1
 764 1897 l 1
 1055 1552 l 1
 757 1552 l 1
 626 1716 l 1
 486 1552 l 1
 198 1552 l 1
EndSplineSet
EndChar

StartChar: kgreenlandic
Encoding: 238 312 374
Width: 1239
Flags: HW
LayerCount: 2
Fore
SplineSet
121 0 m 1
 121 1038 l 1
 513 1038 l 1
 513 630 l 1
 779 1038 l 1
 1203 1038 l 1
 1203 994 l 1
 912 596 l 1
 1230 87 l 1
 1230 0 l 1
 801 0 l 1
 580 423 l 1
 513 330 l 1
 513 0 l 1
 121 0 l 1
EndSplineSet
EndChar

StartChar: uni0237
Encoding: 337 567 380
Width: 740
Flags: HW
LayerCount: 2
Fore
SplineSet
162 -405 m 0
 59 -405 -47 -391 -79 -388 c 1
 -79 -113 l 1
 -79 -113 2 -119 33 -119 c 0
 135 -119 201 -83 201 122 c 2
 201 1038 l 1
 588 1038 l 1
 588 -81 l 2
 588 -301 393 -405 162 -405 c 0
EndSplineSet
EndChar

StartChar: uni02C9
Encoding: 404 713 385
Width: 316
Flags: HW
LayerCount: 2
Fore
SplineSet
-117 1167 m 1
 -117 1356 l 1
 438 1356 l 1
 438 1167 l 1
 -117 1167 l 1
EndSplineSet
EndChar

StartChar: uni0307
Encoding: 401 775 386
Width: 152
Flags: HW
LayerCount: 2
Fore
SplineSet
74 142 m 0
 -75 142 -148 228 -148 335 c 0
 -148 440 -74 529 74 529 c 0
 223 529 297 439 297 333 c 0
 297 226 222 142 74 142 c 0
EndSplineSet
EndChar

StartChar: uni030F
Encoding: 346 783 387
Width: 725
Flags: HW
LayerCount: 2
Fore
SplineSet
585 1137 m 1
 321 1481 l 1
 547 1481 l 1
 739 1137 l 1
 585 1137 l 1
278 1137 m 1
 -14 1481 l 1
 231 1481 l 1
 433 1137 l 1
 278 1137 l 1
EndSplineSet
EndChar

StartChar: uni0311
Encoding: 347 785 388
Width: 857
Flags: HW
LayerCount: 2
Fore
SplineSet
81 1147 m 1
 84 1361 219 1474 429 1474 c 0
 656 1474 773 1361 776 1147 c 1
 596 1147 l 1
 588 1241 552 1311 429 1311 c 0
 318 1311 272 1245 264 1147 c 1
 81 1147 l 1
EndSplineSet
EndChar

StartChar: uni0326
Encoding: 348 806 389
Width: 470
Flags: HW
LayerCount: 2
Fore
SplineSet
45 -235 m 1
 104 338 l 1
 439 338 l 1
 216 -235 l 1
 45 -235 l 1
EndSplineSet
EndChar

StartChar: uni00B2
Encoding: 113 178 390
Width: 1523
Flags: HW
LayerCount: 2
Fore
SplineSet
25 557 m 1
 25 737 l 1
 136 737 l 1
 136 1144 l 1
 -30 1125 l 1
 -30 1275 l 1
 76 1282 151 1303 164 1381 c 1
 380 1381 l 1
 380 737 l 1
 485 737 l 1
 485 557 l 1
 25 557 l 1
909 3 m 1
 909 150 l 1
 980 199 1257 416 1257 543 c 0
 1257 624 1198 635 1169 635 c 0
 1086 635 1004 597 975 585 c 1
 922 762 l 1
 967 798 1095 839 1196 839 c 0
 1403 839 1518 735 1518 575 c 0
 1518 409 1306 219 1240 190 c 1
 1558 190 l 1
 1558 3 l 1
 909 3 l 1
256 0 m 1
 1088 1430 l 1
 1215 1430 l 1
 383 0 l 1
 256 0 l 1
EndSplineSet
EndChar

StartChar: uni2215
Encoding: 405 8725 391
Width: 1358
Flags: HW
LayerCount: 2
Fore
SplineSet
230 0 m 1
 787 1482 l 1
 1083 1482 l 1
 522 0 l 1
 230 0 l 1
EndSplineSet
EndChar

StartChar: uni2219
Encoding: 406 8729 392
Width: 152
Flags: HW
LayerCount: 2
Fore
SplineSet
74 142 m 0
 -75 142 -148 228 -148 335 c 0
 -148 440 -74 529 74 529 c 0
 223 529 297 439 297 333 c 0
 297 226 222 142 74 142 c 0
EndSplineSet
EndChar

StartChar: Euro
Encoding: 370 8364 393
Width: 1180
Flags: HW
LayerCount: 2
Back
SplineSet
753 -25 m 1
 413 -25 181 120 99 437 c 1
 -44 437 l 1
 4 640 l 1
 59 640 l 1
 59 707.607 57.2123 706.719 63 819 c 1
 -35 819 l 1
 10 1010 l 1
 92 1010 l 1
 168 1300 381 1505 733 1505 c 0
 877 1505 1021 1465 1146 1437 c 1
 1146 1083 l 1
 1013 1083 l 1
 965 1160 856 1175 842 1175 c 0
 672 1175 631 1094 583 1010 c 1
 1031 1010 l 1
 991 819 l 1
 536 819 l 1
 531.458 708.864 519.627 702.236 530 640 c 1
 953 640 l 1
 907 437 l 1
 598 437 l 1
 664 323 750 319 818 306 c 1
 873 306 974 339 1049 396 c 1
 1146 396 l 1
 1146 41 l 1
 1039 17 928 -8 753 -25 c 1
EndSplineSet
Fore
SplineSet
753 -25 m 0
 413 -25 181 192 99 509 c 1
 -54 509 l 1
 -6 658 l 1
 59 658 l 1
 59 684 59 697 59 710 c 0
 59 731 59 750 63 819 c 1
 -45 819 l 1
 0 968 l 1
 92 968 l 1
 168 1258 381 1505 733 1505 c 0
 877 1505 1021 1465 1146 1437 c 1
 1146 1083 l 1
 1013 1083 l 1
 992 1156 938 1213 842 1213 c 0
 672 1213 601 1082 552 968 c 1
 1031 968 l 1
 1001 819 l 1
 520 819 l 1
 512 787 510 752 510 723 c 0
 510 685 514 658 514 658 c 1
 953 658 l 1
 921 509 l 1
 543 509 l 1
 606 312 738 273 831 273 c 0
 941 273 992 332 1049 396 c 1
 1146 396 l 1
 1146 41 l 1
 1100 24 974 -25 753 -25 c 0
EndSplineSet
EndChar

StartChar: uni00AD
Encoding: 108 173 395
Width: 800
Flags: HW
LayerCount: 2
Fore
SplineSet
110 438 m 1
 110 637 l 1
 693 637 l 1
 693 438 l 1
 110 438 l 1
EndSplineSet
EndChar

StartChar: dblgravecmb
Encoding: 402 -1 396
Width: 900
Flags: HW
LayerCount: 2
Fore
SplineSet
496 1186 m 1
 265 1534 l 1
 644 1534 l 1
 771 1186 l 1
 496 1186 l 1
-21 1186 m 1
 -243 1534 l 1
 143 1534 l 1
 257 1186 l 1
 -21 1186 l 1
EndSplineSet
EndChar

StartChar: uniFB03
Encoding: 382 64259 398
Width: 2203
VWidth: 0
Flags: H
LayerCount: 2
Fore
SplineSet
1856 1192 m 0
 1707 1192 1634 1278 1634 1385 c 0
 1634 1490 1708 1579 1856 1579 c 0
 2005 1579 2079 1489 2079 1383 c 0
 2079 1276 2004 1192 1856 1192 c 0
887 0 m 1
 887 808 l 1
 519 808 l 1
 519 0 l 1
 132 0 l 1
 132 808 l 1
 7 808 l 1
 7 1038 l 1
 132 1038 l 1
 132 1080 l 2
 132 1331 287 1447 556 1447 c 0
 630 1447 713 1439 770 1433 c 1
 770 1169 l 1
 689 1177 657 1178 630 1178 c 0
 572 1178 510 1140 510 1038 c 1
 887 1038 l 1
 887 1080 l 2
 887 1331 1042 1447 1311 1447 c 0
 1385 1447 1468 1439 1525 1433 c 1
 1525 1169 l 1
 1444 1177 1412 1178 1385 1178 c 0
 1327 1178 1265 1140 1265 1038 c 1
 2051 1038 l 1
 2051 0 l 1
 1663 0 l 1
 1663 808 l 1
 1274 808 l 1
 1274 0 l 1
 887 0 l 1
EndSplineSet
LCarets2: 2 0 0 
Ligature2: "'liga' Standard Ligatures in Latin lookup 0-1" f f i
EndChar

StartChar: uniFB04
Encoding: 383 64260 399
Width: 2161
VWidth: 0
Flags: HW
LayerCount: 2
Fore
SplineSet
2021 -5 m 2
 1626 -5 1601 155 1601 352 c 2
 1601 1166 l 1
 1518 1173 1378 1178 1352 1178 c 0
 1294 1178 1232 1140 1232 1038 c 1
 1476 1038 l 1
 1476 808 l 1
 1241 808 l 1
 1241 0 l 1
 854 0 l 1
 854 808 l 1
 519 808 l 1
 519 0 l 1
 132 0 l 1
 132 808 l 1
 7 808 l 1
 7 1038 l 1
 132 1038 l 1
 132 1080 l 2
 132 1331 287 1447 556 1447 c 0
 630 1447 713 1439 770 1433 c 1
 770 1169 l 1
 689 1177 657 1178 630 1178 c 0
 572 1178 510 1140 510 1038 c 1
 854 1038 l 1
 854 1080 l 2
 854 1331 1009 1447 1278 1447 c 0
 1536 1447 1752 1416 1988 1395 c 1
 1988 377 l 2
 1988 313 2014 247 2109 247 c 1
 2109 -5 l 1
 2021 -5 l 2
EndSplineSet
Ligature2: "'liga' Standard Ligatures in Latin lookup 0-1" f f l
EndChar

StartChar: uniFB01
Encoding: 374 64257 400
Width: 1448
VWidth: 0
Flags: H
LayerCount: 2
Fore
SplineSet
1101 1192 m 4
 952 1192 879 1278 879 1385 c 4
 879 1490 953 1579 1101 1579 c 4
 1250 1579 1324 1489 1324 1383 c 4
 1324 1276 1249 1192 1101 1192 c 4
132 0 m 1
 132 808 l 1
 7 808 l 1
 7 1038 l 1
 132 1038 l 1
 132 1080 l 2
 132 1331 287 1447 556 1447 c 0
 630 1447 713 1439 770 1433 c 1
 770 1169 l 1
 689 1177 657 1178 630 1178 c 0
 572 1178 510 1140 510 1038 c 1
 1296 1038 l 1
 1296 0 l 1
 908 0 l 1
 908 808 l 1
 519 808 l 1
 519 0 l 1
 132 0 l 1
EndSplineSet
LCarets2: 1 0 
Ligature2: "'liga' Standard Ligatures in Latin lookup 0-1" f i
EndChar

StartChar: uniFB02
Encoding: 375 64258 401
Width: 1439
VWidth: 0
Flags: H
LayerCount: 2
Fore
SplineSet
1299 -5 m 6
 904 -5 879 155 879 352 c 6
 879 1166 l 5
 796 1173 656 1178 630 1178 c 4
 572 1178 510 1140 510 1038 c 5
 754 1038 l 5
 754 808 l 5
 519 808 l 5
 519 0 l 5
 132 0 l 5
 132 808 l 5
 7 808 l 5
 7 1038 l 5
 132 1038 l 5
 132 1080 l 6
 132 1331 287 1447 556 1447 c 4
 814 1447 1030 1416 1266 1395 c 5
 1266 377 l 6
 1266 313 1292 247 1387 247 c 5
 1387 -5 l 5
 1299 -5 l 6
EndSplineSet
Ligature2: "'liga' Standard Ligatures in Latin lookup 0-1" f l
EndChar

StartChar: uniFB00
Encoding: 376 64256 402
Width: 1490
VWidth: 0
Flags: HW
LayerCount: 2
Fore
SplineSet
132 0 m 1
 132 808 l 1
 7 808 l 1
 7 1038 l 1
 132 1038 l 1
 132 1080 l 2
 132 1331 287 1447 556 1447 c 0
 630 1447 713 1439 770 1433 c 1
 770 1169 l 1
 689 1177 657 1178 630 1178 c 0
 572 1178 510 1140 510 1038 c 1
 867 1038 l 1
 867 1080 l 2
 867 1331 1022 1447 1291 1447 c 0
 1365 1447 1448 1439 1505 1433 c 1
 1505 1169 l 1
 1424 1177 1392 1178 1365 1178 c 0
 1307 1178 1245 1140 1245 1038 c 1
 1489 1038 l 1
 1489 808 l 1
 1254 808 l 1
 1254 0 l 1
 867 0 l 1
 867 808 l 1
 519 808 l 1
 519 0 l 1
 132 0 l 1
EndSplineSet
Ligature2: "'liga' Standard Ligatures in Latin lookup 0-1" f f
EndChar

StartChar: foundryicon
Encoding: 384 -1 403
Width: 1622
VWidth: 0
Flags: HW
LayerCount: 2
Fore
SplineSet
344 277 m 1
 512 819 l 1
 53 1157 l 1
 625 1168 l 1
 803 1710 l 1
 991 1168 l 1
 1563 1168 l 1
 1102 819 l 1
 1272 277 l 1
 803 604 l 1
 344 277 l 1
EndSplineSet
EndChar

StartChar: gcommaaccent
Encoding: 217 291 404
Width: 1231
Flags: HW
LayerCount: 2
Fore
SplineSet
892 1795 m 1
 833 1222 l 1
 498 1222 l 1
 721 1795 l 1
 892 1795 l 1
EndSplineSet
Refer: 89 103 N 1 0 0 1 0 0 3
EndChar
